<?xml version="1.0" encoding="UTF-8" standalone="no"?>
<svg
   width="471.23575"
   zoomAndPan="magnify"
   viewBox="0 0 353.42681 132.80524"
   height="177.07365"
   preserveAspectRatio="xMidYMid"
   version="1.0"
   id="svg123"
   sodipodi:docname="logoVertical.svg"
   xmlns:inkscape="http://www.inkscape.org/namespaces/inkscape"
   xmlns:sodipodi="http://sodipodi.sourceforge.net/DTD/sodipodi-0.dtd"
   xmlns="http://www.w3.org/2000/svg"
   xmlns:svg="http://www.w3.org/2000/svg">
  <sodipodi:namedview
     id="namedview125"
     pagecolor="#ffffff"
     bordercolor="#000000"
     borderopacity="0.25"
     inkscape:showpageshadow="2"
     inkscape:pageopacity="0.0"
     inkscape:pagecheckerboard="0"
     inkscape:deskcolor="#d1d1d1"
     showgrid="false" />
  <defs
     id="defs13">
    <clipPath
       id="d0efb9bf75">
      <path
         d="m 107,145 h 13 v 17.39453 h -13 z m 0,0"
         clip-rule="nonzero"
         id="path4" />
    </clipPath>
    <clipPath
       id="1ef3b7752a">
      <path
         d="m 117,137.67187 h 14 V 155 h -14 z m 0,0"
         clip-rule="nonzero"
         id="path7" />
    </clipPath>
    <clipPath
       id="603d4fefa2">
      <path
         d="M 6,41.609375 H 121 V 168.98047 H 6 Z m 0,0"
         clip-rule="nonzero"
         id="path10" />
    </clipPath>
  </defs>
  <path
     stroke-linecap="butt"
     fill="none"
     stroke-linejoin="miter"
     d="m 146.08593,77.747225 c -5.43359,0 -9.60156,1.66407 -12.5,4.9961 -2.89844,3.3125 -4.34766,8.0039 -4.34766,14.07421 0,6.144535 1.60547,10.878905 4.8125,14.207035 3.21094,3.3125 7.53907,4.96875 12.99219,4.96875 2.89844,0 5.34766,-0.38672 7.34766,-1.16407 2.01953,-0.77734 3.95312,-1.65625 5.79687,-2.64062 1.19141,0.98437 2.1211,2.16797 2.79688,3.54687 0.67187,1.37891 1.00781,2.98438 1.00781,4.8125 0,2.89844 -1.61328,5.35547 -4.83984,7.37501 -3.20704,2.01952 -8.09766,3.02734 -14.67188,3.02734 -4.72656,0 -9.17578,-0.67187 -13.35156,-2.01953 -4.16016,-1.34375 -7.79688,-3.41407 -10.92188,-6.20703 -3.10547,-2.79688 -5.5625,-6.32422 -7.375,-10.58594 -1.79297,-4.27735 -2.6914,-9.38282 -2.6914,-15.320315 0,-5.51953 0.86328,-10.37499 2.58984,-14.5664 1.74219,-4.21094 4.11328,-7.76563 7.11328,-10.66406 3.00391,-2.89844 6.51563,-5.08594 10.53516,-6.57032 4.03516,-1.48437 8.34765,-2.22656 12.9375,-2.22656 6.5039,0 11.53906,1.0625 15.11328,3.18359 3.57031,2.1211 5.35547,4.83985 5.35547,8.15235 0,1.84375 -0.46484,3.4414 -1.39844,4.78515 -0.91406,1.32813 -1.96484,2.38282 -3.15625,3.15626 -1.84765,-1.18751 -3.8125,-2.20704 -5.89844,-3.05079 -2.07031,-0.84765 -4.48828,-1.26953 -7.24609,-1.26953 z m 85.19922,50.874995 c -0.77344,0.20703 -1.99219,0.41407 -3.64843,0.6211 -1.65626,0.20702 -3.3047,0.30859 -4.94142,0.30859 -1.62109,0 -3.05468,-0.11719 -4.29687,-0.35938 -1.22266,-0.24218 -2.25781,-0.68359 -3.10547,-1.32031 -0.84375,-0.64062 -1.48046,-1.51953 -1.91406,-2.64062 -0.42969,-1.13672 -0.64844,-2.6211 -0.64844,-4.44922 v -16.53516 h -20.33594 v 24.375 c -0.77734,0.20703 -2.0039,0.41407 -3.67578,0.6211 -1.65625,0.20702 -3.29687,0.30859 -4.91797,0.30859 -1.62109,0 -3.05468,-0.11719 -4.29296,-0.35938 -1.22657,-0.24218 -2.26954,-0.68359 -3.13282,-1.32031 -0.84375,-0.64062 -1.48437,-1.51953 -1.91406,-2.64062 -0.41406,-1.13672 -0.62109,-2.6211 -0.62109,-4.44922 V 64.809725 c 0.77343,-0.14062 2.00781,-0.32812 3.69922,-0.57031 1.70703,-0.25781 3.33984,-0.38672 4.89062,-0.38672 1.62109,0 3.05469,0.12891 4.29688,0.38672 1.24218,0.24219 2.28515,0.67969 3.1289,1.32031 0.84766,0.6211 1.47656,1.5 1.89063,2.64063 0.42968,1.12109 0.64843,2.60156 0.64843,4.44922 v 16.94921 h 20.33594 v -24.78906 c 0.79688,-0.14062 2.03907,-0.32812 3.72656,-0.57031 1.69141,-0.25781 3.3125,-0.38672 4.86719,-0.38672 1.6211,0 3.05469,0.12891 4.29687,0.38672 1.23829,0.24219 2.28516,0.67969 3.12892,1.32031 0.84374,0.6211 1.47655,1.5 1.89062,2.64063 0.42968,1.12109 0.64453,2.60156 0.64453,4.44922 z m 13.77344,-53.953115 c 0,-3.03907 0.8789,-5.4336 2.63671,-7.19531 1.77735,-1.77735 4.1836,-2.66407 7.22266,-2.66407 h 34.98438 c 0.5,0.77344 0.9414,1.80078 1.32031,3.07813 0.39453,1.25781 0.59375,2.59765 0.59375,4.01172 0,2.6914 -0.58594,4.60547 -1.75782,5.74609 -1.17577,1.12109 -2.71093,1.67969 -4.60546,1.67969 h -22.35938 v 9.85937 h 23.83203 c 0.5,0.77735 0.94141,1.78516 1.32032,3.02735 0.39843,1.22656 0.59374,2.54687 0.59374,3.96093 0,2.69141 -0.5664,4.605465 -1.70703,5.742185 -1.12109,1.1211 -2.64062,1.68359 -4.55468,1.68359 h -19.48438 v 11.12891 h 27.22266 c 0.5,0.77344 0.94141,1.80078 1.32032,3.07813 0.39453,1.27734 0.59375,2.61328 0.59375,4.01172 0,2.6914 -0.58594,4.62109 -1.75782,5.79687 -1.15625,1.15625 -2.69141,1.73047 -4.60547,1.73047 h -30.94922 c -3.03906,0 -5.44531,-0.87891 -7.22266,-2.63672 -1.75781,-1.77734 -2.63671,-4.18359 -2.63671,-7.22266 z m 103.23047,-9.85938 c 0.5,0.77344 0.9414,1.82031 1.32031,3.12891 0.39844,1.29687 0.59375,2.64844 0.59375,4.0625 0,2.76172 -0.58594,4.72656 -1.75782,5.90234 -1.15625,1.15625 -2.72656,1.73438 -4.71093,1.73438 h -22.25391 v 11.98047 h 23.21094 c 0.57032,0.77734 1.04688,1.80078 1.42579,3.07812 0.39453,1.27734 0.59375,2.6211 0.59375,4.03906 0,2.671875 -0.58594,4.597655 -1.75782,5.769525 -1.15625,1.15625 -2.72656,1.73438 -4.71093,1.73438 H 321.6875 v 22.38281 c -0.77735,0.20703 -2,0.41407 -3.67578,0.6211 -1.65626,0.20702 -3.29298,0.30859 -4.91407,0.30859 -1.62109,0 -3.05469,-0.11719 -4.29688,-0.35938 -1.22265,-0.24218 -2.26953,-0.68359 -3.1289,-1.32031 -0.84766,-0.64062 -1.48437,-1.51953 -1.91796,-2.64062 -0.41407,-1.13672 -0.6211,-2.6211 -0.6211,-4.44922 V 74.669105 c 0,-3.03907 0.8828,-5.4336 2.64062,-7.19531 1.77734,-1.77735 4.18359,-2.66407 7.21875,-2.66407 z m 0,0"
     stroke="#000000"
     stroke-width="3.70976"
     stroke-opacity="1"
     stroke-miterlimit="4"
     id="path15" />
  <g
     fill="#ffbd59"
     fill-opacity="1"
     id="g23"
     transform="translate(-6.7539058,-39.678555)">
    <g
       transform="translate(113.19494,168.7147)"
       id="g21">
      <g
         id="g19">
        <path
           d="m 39.640625,-51.296875 c -5.4375,0 -9.605469,1.664063 -12.5,4.984375 -2.898437,3.3125 -4.34375,8.011719 -4.34375,14.09375 0,6.148438 1.601563,10.882812 4.8125,14.203125 3.21875,3.324219 7.546875,4.984375 12.984375,4.984375 2.894531,0 5.347656,-0.390625 7.359375,-1.171875 2.019531,-0.78125 3.945313,-1.664063 5.78125,-2.65625 1.207031,0.992187 2.144531,2.179687 2.8125,3.5625 0.675781,1.375 1.015625,2.980469 1.015625,4.8125 0,2.898437 -1.609375,5.355469 -4.828125,7.375 -3.21875,2.007813 -8.117187,3.015625 -14.6875,3.015625 -4.730469,0 -9.183594,-0.671875 -13.359375,-2.015625 -4.167969,-1.34375 -7.808594,-3.410156 -10.921875,-6.203125 -3.105469,-2.789062 -5.558594,-6.320312 -7.359375,-10.59375 -1.804688,-4.269531 -2.703125,-9.375 -2.703125,-15.3125 0,-5.507812 0.863281,-10.367188 2.59375,-14.578125 1.738281,-4.207031 4.109375,-7.757813 7.109375,-10.65625 3,-2.894531 6.515625,-5.082031 10.546875,-6.5625 4.03125,-1.488281 8.34375,-2.234375 12.9375,-2.234375 6.5,0 11.53125,1.0625 15.09375,3.1875 3.570313,2.117188 5.359375,4.835938 5.359375,8.15625 0,1.835938 -0.460938,3.421875 -1.375,4.765625 -0.917969,1.34375 -1.980469,2.40625 -3.1875,3.1875 -1.835938,-1.207031 -3.792969,-2.234375 -5.875,-3.078125 -2.085938,-0.84375 -4.507812,-1.265625 -7.265625,-1.265625 z m 0,0"
           id="path17" />
      </g>
    </g>
  </g>
  <g
     fill="#ffbd59"
     fill-opacity="1"
     id="g31"
     transform="translate(-6.7539058,-39.678555)">
    <g
       transform="translate(173.70935,168.7147)"
       id="g29">
      <g
         id="g27">
        <path
           d="m 64.34375,-0.421875 c -0.78125,0.210937 -2.007812,0.41796875 -3.671875,0.625 C 59.015625,0.421875 57.375,0.53125 55.75,0.53125 c -1.625,0 -3.058594,-0.125 -4.296875,-0.375 -1.230469,-0.25 -2.273437,-0.691406 -3.125,-1.328125 -0.84375,-0.632813 -1.480469,-1.515625 -1.90625,-2.640625 -0.417969,-1.132812 -0.625,-2.617188 -0.625,-4.453125 v -16.53125 H 25.4375 v 24.375 c -0.773438,0.210937 -1.992188,0.41796875 -3.65625,0.625 -1.65625,0.21875 -3.296875,0.328125 -4.921875,0.328125 -1.625,0 -3.058594,-0.125 -4.296875,-0.375 -1.242188,-0.25 -2.289062,-0.691406 -3.140625,-1.328125 C 8.578125,-1.804688 7.941406,-2.6875 7.515625,-3.8125 c -0.417969,-1.132812 -0.625,-2.617188 -0.625,-4.453125 v -55.96875 c 0.78125,-0.144531 2.015625,-0.335937 3.703125,-0.578125 1.695312,-0.25 3.320312,-0.375 4.875,-0.375 1.625,0 3.054688,0.125 4.296875,0.375 1.238281,0.242188 2.28125,0.679688 3.125,1.3125 0.851563,0.636719 1.488281,1.523438 1.90625,2.65625 0.425781,1.136719 0.640625,2.621094 0.640625,4.453125 V -39.4375 h 20.359375 v -24.796875 c 0.769531,-0.144531 2.003906,-0.335937 3.703125,-0.578125 1.695312,-0.25 3.320312,-0.375 4.875,-0.375 1.625,0 3.054688,0.125 4.296875,0.375 1.238281,0.242188 2.28125,0.679688 3.125,1.3125 0.84375,0.636719 1.476563,1.523438 1.90625,2.65625 0.425781,1.136719 0.640625,2.621094 0.640625,4.453125 z m 0,0"
           id="path25" />
      </g>
    </g>
  </g>
  <g
     fill="#ffbd59"
     fill-opacity="1"
     id="g39"
     transform="translate(-6.7539058,-39.678555)">
    <g
       transform="translate(244.9277,168.7147)"
       id="g37">
      <g
         id="g35">
        <path
           d="m 6.890625,-54.375 c 0,-3.039062 0.878906,-5.441406 2.640625,-7.203125 1.769531,-1.769531 4.175781,-2.65625 7.21875,-2.65625 h 34.984375 c 0.488281,0.78125 0.925781,1.808594 1.3125,3.078125 0.394531,1.273438 0.59375,2.609375 0.59375,4.015625 0,2.6875 -0.585937,4.601563 -1.75,5.734375 -1.167969,1.125 -2.703125,1.6875 -4.609375,1.6875 h -22.375 v 9.859375 h 23.859375 c 0.488281,0.78125 0.925781,1.792969 1.3125,3.03125 0.394531,1.230469 0.59375,2.554687 0.59375,3.96875 0,2.6875 -0.570313,4.601563 -1.703125,5.734375 -1.125,1.125 -2.648438,1.6875 -4.5625,1.6875 h -19.5 v 11.125 h 27.25 c 0.488281,0.78125 0.925781,1.808594 1.3125,3.078125 0.394531,1.273437 0.59375,2.617187 0.59375,4.03125 0,2.679687 -0.585938,4.601563 -1.75,5.765625 -1.167969,1.167969 -2.703125,1.75 -4.609375,1.75 H 16.75 c -3.042969,0 -5.449219,-0.878906 -7.21875,-2.640625 -1.761719,-1.769531 -2.640625,-4.175781 -2.640625,-7.21875 z m 0,0"
           id="path33" />
      </g>
    </g>
  </g>
  <g
     fill="#ffbd59"
     fill-opacity="1"
     id="g47"
     transform="translate(-6.7539058,-39.678555)">
    <g
       transform="translate(303.00457,168.7147)"
       id="g45">
      <g
         id="g43">
        <path
           d="m 52.046875,-64.234375 c 0.488281,0.78125 0.925781,1.828125 1.3125,3.140625 0.394531,1.304688 0.59375,2.65625 0.59375,4.0625 0,2.761719 -0.585937,4.726562 -1.75,5.890625 -1.167969,1.167969 -2.742187,1.75 -4.71875,1.75 h -22.25 v 11.96875 H 48.4375 c 0.570312,0.78125 1.050781,1.808594 1.4375,3.078125 0.382812,1.273438 0.578125,2.617188 0.578125,4.03125 0,2.6875 -0.585937,4.617188 -1.75,5.78125 -1.167969,1.15625 -2.742187,1.734375 -4.71875,1.734375 H 25.4375 v 22.375 c -0.773438,0.210937 -1.992188,0.41796875 -3.65625,0.625 -1.65625,0.21875 -3.296875,0.328125 -4.921875,0.328125 -1.625,0 -3.058594,-0.125 -4.296875,-0.375 -1.242188,-0.25 -2.289062,-0.691406 -3.140625,-1.328125 C 8.578125,-1.804688 7.941406,-2.6875 7.515625,-3.8125 c -0.417969,-1.132812 -0.625,-2.617188 -0.625,-4.453125 V -54.375 c 0,-3.039062 0.878906,-5.441406 2.640625,-7.203125 1.769531,-1.769531 4.175781,-2.65625 7.21875,-2.65625 z m 0,0"
           id="path41" />
      </g>
    </g>
  </g>
  <path
     stroke-linecap="butt"
     fill="none"
     stroke-linejoin="miter"
     d="m 128.5703,38.547988 c -2.3164,-0.796875 -4.42969,-1.601562 -6.33203,-2.414062 -1.89453,-0.824217 -3.52734,-1.812499 -4.90625,-2.972655 -1.36328,-1.160155 -2.43359,-2.542967 -3.20312,-4.152342 -0.76172,-1.605468 -1.14063,-3.570311 -1.14063,-5.886716 0,-4.480468 1.72657,-8.062498 5.17578,-10.753903 3.44922,-2.6914053 8.28906,-4.0351553 14.51562,-4.0351553 2.26563,0 4.3711,0.160156 6.31641,0.484375 1.95312,0.308593 3.6289,0.796875 5.01953,1.4648433 1.40234,0.65625 2.49609,1.5 3.28125,2.531249 0.79687,1.015625 1.19531,2.210936 1.19531,3.589843 0,1.363281 -0.31641,2.535155 -0.94531,3.515623 -0.62891,0.976563 -1.39844,1.804688 -2.29688,2.488281 -1.16015,-0.734375 -2.71484,-1.374999 -4.67187,-1.929687 -1.94531,-0.554687 -4.07422,-0.832031 -6.39062,-0.832031 -2.38282,0 -4.125,0.328125 -5.23047,0.984375 -1.10938,0.656249 -1.66406,1.48828 -1.66406,2.492187 0,0.796874 0.34375,1.449218 1.02343,1.949217 0.69532,0.488282 1.72657,0.945313 3.08985,1.371093 l 4.1914,1.351563 c 4.95313,1.58203 8.76172,3.605468 11.42969,6.062498 2.66406,2.445311 3.99609,5.773435 3.99609,9.980465 0,4.480467 -1.76953,8.109373 -5.3125,10.890621 -3.52344,2.765624 -8.71093,4.148436 -15.55859,4.148436 -2.43359,0 -4.6914,-0.199218 -6.77734,-0.597656 -2.07031,-0.398437 -3.88672,-0.976562 -5.44531,-1.738281 -1.55469,-0.773437 -2.77344,-1.722655 -3.64844,-2.855467 -0.85937,-1.132812 -1.29297,-2.441406 -1.29297,-3.921874 0,-1.515625 0.44532,-2.816405 1.33204,-3.898436 0.90234,-1.082031 1.8789,-1.910156 2.93359,-2.492186 1.48047,1.160155 3.28515,2.164061 5.40625,3.011717 2.13672,0.839844 4.47265,1.257812 7.00781,1.257812 2.58984,0 4.41015,-0.394531 5.46484,-1.179687 1.05469,-0.796874 1.58203,-1.722656 1.58203,-2.777343 0,-1.058593 -0.42188,-1.86328 -1.27344,-2.414061 -0.83593,-0.554688 -2.01953,-1.09375 -3.55078,-1.621093 z M 157.1992,8.4894047 c 0,-1.996093 0.66797,-3.67578 2.00781,-5.039061 1.35156,-1.378905 3.13281,-2.066405 5.34765,-2.066405 2.21094,0 3.98828,0.6875 5.32813,2.066405 1.33593,1.363281 2.00781,3.042968 2.00781,5.039061 0,2.0078113 -0.67188,3.6992173 -2.00781,5.0742173 -1.33985,1.367187 -3.11719,2.046874 -5.32813,2.046874 -2.21484,0 -3.99609,-0.679687 -5.34765,-2.046874 -1.33984,-1.375 -2.00781,-3.066406 -2.00781,-5.0742173 z m 14.07421,49.0351393 c -0.58203,0.105469 -1.4375,0.246094 -2.57031,0.425782 -1.13281,0.191405 -2.28516,0.289062 -3.45312,0.289062 -1.16016,0 -2.20313,-0.08203 -3.12891,-0.25 -0.91406,-0.15625 -1.6875,-0.46875 -2.3164,-0.945312 -0.63282,-0.476563 -1.1211,-1.121094 -1.46875,-1.933594 -0.34766,-0.820312 -0.51954,-1.890623 -0.51954,-3.203123 V 19.723776 c 0.57813,-0.101563 1.4336,-0.246093 2.56641,-0.425781 1.14453,-0.191406 2.29687,-0.289063 3.45703,-0.289063 1.15625,0 2.19531,0.08593 3.10937,0.250001 0.92578,0.15625 1.70313,0.472655 2.33594,0.949218 0.62891,0.460937 1.11719,1.105468 1.46484,1.929687 0.34766,0.808593 0.52344,1.878906 0.52344,3.203124 z m 26.95312,-39.539048 c 2.16015,0 4.28515,0.304687 6.36719,0.910155 2.08593,0.601563 3.89452,1.511718 5.42577,2.71875 1.58594,-1.054688 3.35938,-1.921875 5.32812,-2.605469 1.98438,-0.679687 4.3711,-1.023436 7.16406,-1.023436 1.9961,0 3.95313,0.265624 5.86719,0.792967 1.93359,0.527345 3.65234,1.359376 5.15625,2.488281 1.50781,1.132813 2.70312,2.640625 3.58984,4.51953 0.90234,1.867187 1.35156,4.14453 1.35156,6.835935 v 24.902335 c -0.52734,0.15625 -1.35547,0.308594 -2.48828,0.464844 -1.13281,0.167968 -2.30468,0.25 -3.51562,0.25 -1.15625,0 -2.19922,-0.08203 -3.125,-0.25 -0.92969,-0.15625 -1.70703,-0.46875 -2.33594,-0.945312 -0.63281,-0.476563 -1.12109,-1.121094 -1.46875,-1.933594 -0.33593,-0.820312 -0.5039,-1.890623 -0.5039,-3.203123 V 33.005022 c 0,-1.582031 -0.44922,-2.726562 -1.35156,-3.433593 -0.88672,-0.710937 -2.09766,-1.062499 -3.62891,-1.062499 -0.73047,0 -1.52344,0.171874 -2.37499,0.51953 -0.84766,0.335937 -1.48048,0.691406 -1.89063,1.0625 0.0508,0.207031 0.0781,0.40625 0.0781,0.597656 0,0.179687 0,0.347656 0,0.503906 v 26.332022 c -0.57812,0.15625 -1.4375,0.308594 -2.57031,0.464844 -1.12891,0.167968 -2.28126,0.25 -3.45313,0.25 -1.16015,0 -2.20312,-0.08203 -3.12891,-0.25 -0.91405,-0.15625 -1.68358,-0.46875 -2.3164,-0.945312 -0.6289,-0.476563 -1.12109,-1.121094 -1.46875,-1.933594 C 202.58587,54.29017 202.414,53.219859 202.414,51.907359 V 33.005022 c 0,-1.582031 -0.48828,-2.726562 -1.46875,-3.433593 -0.96484,-0.710937 -2.13672,-1.062499 -3.51172,-1.062499 -0.9414,0 -1.75781,0.148436 -2.45312,0.445312 -0.67969,0.28125 -1.26172,0.55078 -1.73828,0.808593 v 27.761709 c -0.52735,0.15625 -1.35547,0.308594 -2.48828,0.464844 -1.13281,0.167968 -2.30469,0.25 -3.51563,0.25 -1.15625,0 -2.19921,-0.08203 -3.125,-0.25 -0.91406,-0.15625 -1.69531,-0.46875 -2.33593,-0.945312 -0.63281,-0.476563 -1.1211,-1.121094 -1.46875,-1.933594 -0.33594,-0.820312 -0.5,-1.890623 -0.5,-3.203123 V 28.024554 c 0,-1.414062 0.30078,-2.546873 0.90625,-3.398436 0.60547,-0.847656 1.43359,-1.640624 2.48828,-2.371093 1.78906,-1.261718 4.01562,-2.285155 6.67968,-3.070311 2.66407,-0.800781 5.44531,-1.199218 8.34375,-1.199218 z m 66.10544,0 c 3.16797,0 6.10938,0.414062 8.82422,1.23828 2.71484,0.808594 5.04297,2.058593 6.98827,3.742186 1.95704,1.6875 3.48829,3.812499 4.59376,6.371092 1.10937,2.55078 1.66015,5.593748 1.66015,9.132809 0,3.371093 -0.47656,6.328123 -1.42578,8.863279 -0.94141,2.51953 -2.28515,4.636716 -4.03516,6.35156 -1.73827,1.710937 -3.83593,2.992186 -6.29686,3.839842 -2.44532,0.835938 -5.16407,1.253906 -8.16406,1.253906 -2.26563,0 -4.37501,-0.339843 -6.33204,-1.019531 v 13.124996 c -0.52733,0.15625 -1.37109,0.32422 -2.53124,0.50391 -1.15625,0.1914 -2.33984,0.28906 -3.55078,0.28906 -1.16016,0 -2.20313,-0.0781 -3.12891,-0.23047 -0.92578,-0.15625 -1.70312,-0.47266 -2.33594,-0.94922 -0.6289,-0.47265 -1.10547,-1.125 -1.42969,-1.94922 -0.30859,-0.80859 -0.46093,-1.8789 -0.46093,-3.20312 V 27.387836 c 0,-1.414062 0.30078,-2.574218 0.90625,-3.472655 0.60546,-0.902343 1.43749,-1.71875 2.49218,-2.453124 1.63282,-1.054688 3.66016,-1.898438 6.08203,-2.53125 2.42969,-0.628906 5.14454,-0.945311 8.14453,-0.945311 z m 0.17578,30.214832 c 5.41797,0 8.125,-3.242185 8.125,-9.730465 0,-3.371092 -0.66796,-5.874998 -2.00781,-7.50781 -1.33594,-1.636717 -3.27343,-2.453123 -5.80859,-2.453123 -1.00391,0 -1.90625,0.121093 -2.70313,0.367187 -0.78515,0.230469 -1.46875,0.499999 -2.04687,0.808593 v 17.394525 c 0.62891,0.32422 1.3125,0.59375 2.04687,0.8125 0.7461,0.207032 1.54297,0.308593 2.39453,0.308593 z m 42.14843,9.324216 c -0.58204,0.105469 -1.4414,0.246094 -2.58984,0.425782 -1.13282,0.191405 -2.27735,0.289062 -3.4336,0.289062 -1.16016,0 -2.20312,-0.08203 -3.1289,-0.25 -0.91407,-0.15625 -1.6875,-0.46875 -2.31641,-0.945312 -0.63281,-0.476563 -1.12109,-1.121094 -1.46875,-1.933594 -0.34765,-0.820312 -0.51953,-1.890623 -0.51953,-3.203123 V 6.0362797 c 0.57813,-0.101561 1.4336,-0.246093 2.56641,-0.42578 1.1328,-0.179688 2.28515,-0.269532 3.45703,-0.269532 1.15625,0 2.19531,0.07813 3.10937,0.230469 0.92578,0.15625 1.70312,0.472656 2.33594,0.949219 0.6289,0.472656 1.11719,1.124999 1.46484,1.949217 0.34765,0.808594 0.52344,1.8710943 0.52344,3.1835933 z m 28.78123,1.351562 c -3.11327,0 -6.0039,-0.437499 -8.66796,-1.312499 -2.66406,-0.875 -4.98828,-2.179687 -6.96875,-3.917968 -1.96874,-1.73828 -3.51953,-3.92578 -4.65234,-6.566404 -1.13281,-2.636718 -1.69922,-5.718747 -1.69922,-9.24609 0,-3.476561 0.56641,-6.460935 1.69922,-8.957028 1.13281,-2.511719 2.61719,-4.570311 4.45703,-6.179686 1.85547,-1.609375 3.96484,-2.792968 6.33203,-3.55078 2.37109,-0.773437 4.79687,-1.160155 7.28125,-1.160155 2.79296,0 5.33203,0.42578 7.625,1.273437 2.28905,0.839843 4.26562,1.996092 5.92578,3.476561 1.66015,1.468749 2.95311,3.230467 3.88281,5.28906 0.92578,2.058594 1.39062,4.300781 1.39062,6.718748 0,1.804687 -0.5039,3.179686 -1.50781,4.132811 -1.00391,0.9375 -2.39844,1.539062 -4.1875,1.796874 l -19.53906,2.933594 c 0.57813,1.73828 1.76172,3.042968 3.55078,3.917966 1.80469,0.863282 3.86328,1.292969 6.17969,1.292969 2.16016,0 4.20312,-0.277344 6.12109,-0.828124 1.92968,-0.554687 3.5,-1.199219 4.70703,-1.933594 0.85156,0.53125 1.56641,1.269531 2.14453,2.222655 0.57812,0.9375 0.86719,1.9375 0.86719,2.992187 0,2.378905 -1.10547,4.152343 -3.32032,5.308592 -1.68359,0.886718 -3.58202,1.492187 -5.6953,1.816406 -2.10938,0.320313 -4.08594,0.480468 -5.92579,0.480468 z m -2.21874,-31.08202 c -1.26172,0 -2.35547,0.210937 -3.28125,0.636719 -0.92969,0.414062 -1.67969,0.953124 -2.26171,1.621093 -0.57813,0.65625 -1.01563,1.398437 -1.3125,2.222655 -0.28126,0.808594 -0.44923,1.632812 -0.50001,2.468749 l 13.51172,-2.199218 c -0.15235,-1.054687 -0.73047,-2.11328 -1.73438,-3.167968 -0.99219,-1.054687 -2.46484,-1.58203 -4.42187,-1.58203 z m 0,0"
     stroke="#000000"
     stroke-width="2.76788"
     stroke-opacity="1"
     stroke-miterlimit="4"
     id="path49" />
  <g
     fill="#ff5757"
     fill-opacity="1"
     id="g57"
     transform="translate(-6.7539058,-39.678555)">
    <g
       transform="translate(116.57669,97.281218)"
       id="g55">
      <g
         id="g53">
        <path
           d="M 18.734375,-19.0625 C 16.421875,-19.851562 14.3125,-20.65625 12.40625,-21.46875 10.507812,-22.289062 8.875,-23.28125 7.5,-24.4375 6.132812,-25.59375 5.066406,-26.972656 4.296875,-28.578125 3.535156,-30.191406 3.15625,-32.160156 3.15625,-34.484375 c 0,-4.476563 1.722656,-8.0625 5.171875,-10.75 3.457031,-2.6875 8.300781,-4.03125 14.53125,-4.03125 2.257813,0 4.363281,0.164063 6.3125,0.484375 1.957031,0.3125 3.632813,0.796875 5.03125,1.453125 1.394531,0.65625 2.488281,1.5 3.28125,2.53125 0.789063,1.03125 1.1875,2.230469 1.1875,3.59375 0,1.375 -0.320313,2.554687 -0.953125,3.53125 -0.636719,0.96875 -1.402344,1.796875 -2.296875,2.484375 -1.15625,-0.738281 -2.714844,-1.382812 -4.671875,-1.9375 -1.949219,-0.550781 -4.078125,-0.828125 -6.390625,-0.828125 -2.375,0 -4.121094,0.328125 -5.234375,0.984375 -1.105469,0.65625 -1.65625,1.484375 -1.65625,2.484375 0,0.792969 0.34375,1.4375 1.03125,1.9375 0.6875,0.5 1.71875,0.964844 3.09375,1.390625 l 4.1875,1.34375 c 4.957031,1.585938 8.765625,3.605469 11.421875,6.0625 2.664063,2.449219 4,5.777344 4,9.984375 0,4.492187 -1.765625,8.121094 -5.296875,10.890625 -3.53125,2.761719 -8.726562,4.140625 -15.578125,4.140625 -2.429687,0 -4.683594,-0.199219 -6.765625,-0.59375 C 11.476562,0.273438 9.65625,-0.300781 8.09375,-1.0625 6.539062,-1.832031 5.328125,-2.78125 4.453125,-3.90625 3.585938,-5.039062 3.15625,-6.347656 3.15625,-7.828125 c 0,-1.53125 0.445312,-2.832031 1.34375,-3.90625 0.90625,-1.082031 1.882812,-1.914063 2.9375,-2.5 1.46875,1.15625 3.269531,2.15625 5.40625,3 2.132812,0.84375 4.46875,1.265625 7,1.265625 2.582031,0 4.398438,-0.394531 5.453125,-1.1875 1.0625,-0.789062 1.59375,-1.710938 1.59375,-2.765625 0,-1.050781 -0.421875,-1.851563 -1.265625,-2.40625 -0.84375,-0.550781 -2.03125,-1.09375 -3.5625,-1.625 z m 0,0"
           id="path51" />
      </g>
    </g>
  </g>
  <g
     fill="#ff5757"
     fill-opacity="1"
     id="g65"
     transform="translate(-6.7539058,-39.678555)">
    <g
       transform="translate(160.14849,97.281218)"
       id="g63">
      <g
         id="g61">
        <path
           d="m 3.796875,-49.109375 c 0,-2 0.671875,-3.679687 2.015625,-5.046875 1.34375,-1.375 3.125,-2.0625 5.34375,-2.0625 2.207031,0 3.984375,0.6875 5.328125,2.0625 1.34375,1.367188 2.015625,3.046875 2.015625,5.046875 0,2 -0.671875,3.6875 -2.015625,5.0625 -1.34375,1.375 -3.121094,2.0625 -5.328125,2.0625 -2.21875,0 -4,-0.6875 -5.34375,-2.0625 -1.34375,-1.375 -2.015625,-3.0625 -2.015625,-5.0625 z M 17.875,-0.078125 c -0.585938,0.1015625 -1.445312,0.242187 -2.578125,0.421875 -1.136719,0.1875 -2.28125,0.28125 -3.4375,0.28125 -1.15625,0 -2.199219,-0.078125 -3.125,-0.234375 -0.917969,-0.15625 -1.695313,-0.46875 -2.328125,-0.9375 -0.636719,-0.476563 -1.125,-1.125 -1.46875,-1.9375 C 4.59375,-3.304688 4.421875,-4.375 4.421875,-5.6875 V -37.875 C 5.003906,-37.976562 5.863281,-38.125 7,-38.3125 c 1.132812,-0.1875 2.28125,-0.28125 3.4375,-0.28125 1.15625,0 2.195312,0.08594 3.125,0.25 0.925781,0.15625 1.703125,0.476562 2.328125,0.953125 0.632813,0.46875 1.125,1.117187 1.46875,1.9375 0.34375,0.8125 0.515625,1.875 0.515625,3.1875 z m 0,0"
           id="path59" />
      </g>
    </g>
  </g>
  <g
     fill="#ff5757"
     fill-opacity="1"
     id="g73"
     transform="translate(-6.7539058,-39.678555)">
    <g
       transform="translate(182.44839,97.281218)"
       id="g71">
      <g
         id="g69">
        <path
           d="m 22.53125,-39.625 c 2.164062,0 4.289062,0.308594 6.375,0.921875 2.082031,0.605469 3.882812,1.511719 5.40625,2.71875 1.582031,-1.050781 3.363281,-1.921875 5.34375,-2.609375 1.976562,-0.6875 4.363281,-1.03125 7.15625,-1.03125 2,0 3.960938,0.265625 5.890625,0.796875 1.925781,0.53125 3.640625,1.367187 5.140625,2.5 1.5,1.125 2.695312,2.625 3.59375,4.5 0.894531,1.875 1.34375,4.15625 1.34375,6.84375 v 24.90625 c -0.523438,0.15625 -1.351562,0.3125 -2.484375,0.46875 C 59.160156,0.546875 57.988281,0.625 56.78125,0.625 c -1.167969,0 -2.214844,-0.078125 -3.140625,-0.234375 -0.917969,-0.15625 -1.695313,-0.46875 -2.328125,-0.9375 -0.625,-0.476563 -1.109375,-1.125 -1.453125,-1.9375 C 49.515625,-3.304688 49.34375,-4.375 49.34375,-5.6875 v -18.90625 c 0,-1.582031 -0.449219,-2.726562 -1.34375,-3.4375 -0.898438,-0.707031 -2.109375,-1.0625 -3.640625,-1.0625 -0.742187,0 -1.53125,0.171875 -2.375,0.515625 -0.84375,0.335937 -1.476563,0.6875 -1.890625,1.0625 0.05078,0.210937 0.07813,0.40625 0.07813,0.59375 0,0.179687 0,0.351563 0,0.515625 v 26.328125 c -0.585937,0.15625 -1.445313,0.3125 -2.578125,0.46875 -1.125,0.15625 -2.273438,0.234375 -3.4375,0.234375 -1.15625,0 -2.199219,-0.078125 -3.125,-0.234375 -0.917969,-0.15625 -1.695312,-0.46875 -2.328125,-0.9375 -0.636719,-0.476563 -1.125,-1.125 -1.46875,-1.9375 -0.335937,-0.820313 -0.5,-1.890625 -0.5,-3.203125 v -18.90625 c 0,-1.582031 -0.492187,-2.726562 -1.46875,-3.4375 -0.980469,-0.707031 -2.152344,-1.0625 -3.515625,-1.0625 -0.949219,0 -1.765625,0.148438 -2.453125,0.4375 -0.6875,0.28125 -1.265625,0.558594 -1.734375,0.828125 v 27.75 c -0.53125,0.15625 -1.367188,0.3125 -2.5,0.46875 -1.136724,0.15625 -2.308599,0.234375 -3.51563,0.234375 -1.15625,0 -2.199219,-0.078125 -3.125,-0.234375 -0.929687,-0.15625 -1.710937,-0.46875 -2.34375,-0.9375 -0.625,-0.476563 -1.109375,-1.125 -1.453125,-1.9375 C 4.28125,-3.304688 4.109375,-4.375 4.109375,-5.6875 v -23.890625 c 0,-1.414063 0.300781,-2.546875 0.90625,-3.390625 0.613281,-0.84375 1.445313,-1.632812 2.5,-2.375 1.789063,-1.269531 4.015625,-2.300781 6.671875,-3.09375 2.664062,-0.789062 5.445312,-1.1875 8.34375,-1.1875 z m 0,0"
           id="path67" />
      </g>
    </g>
  </g>
  <g
     fill="#ff5757"
     fill-opacity="1"
     id="g81"
     transform="translate(-6.7539058,-39.678555)">
    <g
       transform="translate(249.34809,97.281218)"
       id="g79">
      <g
         id="g77">
        <path
           d="m 21.75,-39.625 c 3.15625,0 6.09375,0.414062 8.8125,1.234375 2.71875,0.8125 5.050781,2.0625 7,3.75 1.945312,1.6875 3.472656,3.8125 4.578125,6.375 1.113281,2.554687 1.671875,5.59375 1.671875,9.125 0,3.375 -0.476562,6.328125 -1.421875,8.859375 -0.949219,2.53125 -2.292969,4.65625 -4.03125,6.375 -1.742187,1.710938 -3.839844,2.984375 -6.296875,3.828125 -2.449219,0.84375 -5.179688,1.265625 -8.1875,1.265625 -2.261719,0 -4.367188,-0.34375 -6.3125,-1.03125 v 13.125 c -0.53125,0.15625 -1.382812,0.328125 -2.546875,0.515625 -1.15625,0.1875 -2.339844,0.28125 -3.546875,0.28125 -1.15625,0 -2.199219,-0.08594 -3.125,-0.25 C 7.414062,13.671875 6.632812,13.351562 6,12.875 5.375,12.40625 4.898438,11.765625 4.578125,10.953125 4.265625,10.140625 4.109375,9.070312 4.109375,7.75 v -37.953125 c 0,-1.425781 0.300781,-2.585937 0.90625,-3.484375 0.613281,-0.894531 1.445313,-1.710938 2.5,-2.453125 1.632813,-1.050781 3.660156,-1.894531 6.078125,-2.53125 C 16.019531,-39.304688 18.738281,-39.625 21.75,-39.625 Z m 0.15625,30.21875 c 5.425781,0 8.140625,-3.242188 8.140625,-9.734375 0,-3.375 -0.671875,-5.875 -2.015625,-7.5 -1.34375,-1.632813 -3.28125,-2.453125 -5.8125,-2.453125 -1,0 -1.898438,0.121094 -2.6875,0.359375 -0.792969,0.230469 -1.480469,0.5 -2.0625,0.8125 v 17.40625 c 0.632812,0.3125 1.320312,0.578125 2.0625,0.796875 0.738281,0.210938 1.53125,0.3125 2.375,0.3125 z m 0,0"
           id="path75" />
      </g>
    </g>
  </g>
  <g
     fill="#ff5757"
     fill-opacity="1"
     id="g89"
     transform="translate(-6.7539058,-39.678555)">
    <g
       transform="translate(295.60854,97.281218)"
       id="g87">
      <g
         id="g85">
        <path
           d="M 17.796875,-0.078125 C 17.210938,0.0234375 16.351562,0.164062 15.21875,0.34375 14.082031,0.53125 12.9375,0.625 11.78125,0.625 c -1.15625,0 -2.199219,-0.078125 -3.125,-0.234375 -0.917969,-0.15625 -1.695312,-0.46875 -2.328125,-0.9375 -0.636719,-0.476563 -1.125,-1.125 -1.46875,-1.9375 C 4.515625,-3.304688 4.34375,-4.375 4.34375,-5.6875 v -45.875 c 0.582031,-0.101562 1.441406,-0.242188 2.578125,-0.421875 1.132813,-0.1875 2.28125,-0.28125 3.4375,-0.28125 1.15625,0 2.191406,0.07813 3.109375,0.234375 0.925781,0.15625 1.707031,0.476562 2.34375,0.953125 0.632812,0.46875 1.125,1.117187 1.46875,1.9375 0.34375,0.8125 0.515625,1.882813 0.515625,3.203125 z m 0,0"
           id="path83" />
      </g>
    </g>
  </g>
  <g
     fill="#ff5757"
     fill-opacity="1"
     id="g97"
     transform="translate(-6.7539058,-39.678555)">
    <g
       transform="translate(317.75029,97.281218)"
       id="g95">
      <g
         id="g93">
        <path
           d="m 24.4375,1.265625 c -3.117188,0 -6.007812,-0.433594 -8.671875,-1.296875 -2.65625,-0.875 -4.976563,-2.179688 -6.953125,-3.921875 -1.96875,-1.738281 -3.523438,-3.925781 -4.65625,-6.5625 -1.136719,-2.632813 -1.703125,-5.71875 -1.703125,-9.25 0,-3.476563 0.566406,-6.46875 1.703125,-8.96875 1.132812,-2.507813 2.625,-4.566406 4.46875,-6.171875 1.84375,-1.613281 3.945312,-2.800781 6.3125,-3.5625 2.375,-0.769531 4.800781,-1.15625 7.28125,-1.15625 2.789062,0 5.332031,0.421875 7.625,1.265625 2.300781,0.84375 4.28125,2.007813 5.9375,3.484375 1.664062,1.480469 2.957031,3.25 3.875,5.3125 0.925781,2.054688 1.390625,4.289062 1.390625,6.703125 0,1.792969 -0.507813,3.167969 -1.515625,4.125 -1,0.949219 -2.398438,1.554687 -4.1875,1.8125 L 15.8125,-14 c 0.582031,1.742188 1.769531,3.046875 3.5625,3.921875 1.789062,0.867187 3.847656,1.296875 6.171875,1.296875 2.15625,0 4.195313,-0.273438 6.125,-0.828125 1.925781,-0.550781 3.492187,-1.195313 4.703125,-1.9375 0.84375,0.53125 1.550781,1.273437 2.125,2.21875 0.582031,0.949219 0.875,1.949219 0.875,3 0,2.375 -1.105469,4.140625 -3.3125,5.296875 -1.6875,0.898438 -3.589844,1.5 -5.703125,1.8125 C 28.253906,1.101562 26.28125,1.265625 24.4375,1.265625 Z M 22.21875,-29.8125 c -1.261719,0 -2.355469,0.214844 -3.28125,0.640625 -0.917969,0.417969 -1.667969,0.960937 -2.25,1.625 -0.585938,0.65625 -1.023438,1.390625 -1.3125,2.203125 -0.28125,0.8125 -0.453125,1.640625 -0.515625,2.484375 l 13.53125,-2.203125 c -0.15625,-1.0625 -0.742187,-2.117188 -1.75,-3.171875 -1,-1.050781 -2.476563,-1.578125 -4.421875,-1.578125 z m 0,0"
           id="path91" />
      </g>
    </g>
  </g>
  <g
     clip-path="url(#d0efb9bf75)"
     id="g101"
     transform="translate(-6.7539058,-39.678555)">
    <path
       fill="#41197f"
       d="m 118.39063,147.33984 -8.38672,-1.87109 c -0.33594,-0.0742 -0.6836,0.0703 -0.8711,0.36328 -0.85156,1.35938 -1.48047,2.76172 -1.72265,3.85156 -0.64844,2.91016 0.98047,5.8086 3.69531,6.82422 l -0.76563,3.4336 -1.6875,-0.375 c -0.4375,-0.10157 -0.875,0.17578 -0.97265,0.61718 -0.10156,0.44141 0.17578,0.87891 0.61719,0.97657 l 4.97265,1.10937 c 0.0586,0.0156 0.1211,0.0195 0.17969,0.0195 0.375,0 0.71094,-0.25781 0.79687,-0.64062 0.0977,-0.4375 -0.17968,-0.875 -0.62109,-0.97266 l -1.6875,-0.37891 0.76563,-3.43359 c 0.16015,0.0117 0.32031,0.0195 0.48046,0.0195 1.32422,0 2.625,-0.45312 3.66797,-1.27734 1.0586,-0.83985 1.80469,-2.02735 2.09766,-3.34766 0.24219,-1.08984 0.26953,-2.6289 0.0742,-4.21875 -0.043,-0.34375 -0.29688,-0.625 -0.63281,-0.69922 z m -8.16797,-0.14843 7.23828,1.61718 c 0.0352,0.42578 0.0547,0.83985 0.0547,1.23828 l -7.8711,-1.75781 c 0.17188,-0.35937 0.36328,-0.72656 0.57813,-1.09765 z m 7.1289,4.71093 c -0.42968,1.9375 -2.18359,3.34766 -4.16797,3.34766 -0.3125,0 -0.625,-0.0352 -0.93359,-0.10547 -2.30469,-0.51172 -3.75781,-2.80469 -3.24219,-5.10547 0.043,-0.20703 0.10938,-0.43359 0.19532,-0.67578 l 8.26171,1.84375 c -0.0273,0.25391 -0.0664,0.48828 -0.11328,0.69531 z m 0,0"
       fill-opacity="1"
       fill-rule="nonzero"
       id="path99" />
  </g>
  <g
     clip-path="url(#1ef3b7752a)"
     id="g105"
     transform="translate(-6.7539058,-39.678555)">
    <path
       fill="#41197f"
       d="m 130.03125,152.20703 c -0.12891,-0.43359 -0.58203,-0.68359 -1.01563,-0.55469 l -1.65624,0.48828 -0.99219,-3.36718 c 2.64062,-1.19532 4.0664,-4.1875 3.22656,-7.04688 -0.31641,-1.0664 -1.03516,-2.42578 -1.97656,-3.71875 -0.20313,-0.28125 -0.5625,-0.40234 -0.89453,-0.30469 L 118.5,140.12891 c -0.33203,0.0977 -0.56641,0.39453 -0.58594,0.73828 -0.0898,1.60156 0.043,3.1289 0.35547,4.19922 0.73438,2.49609 3.0625,4.23828 5.66016,4.23828 0.29297,0 0.58203,-0.0234 0.87109,-0.0664 l 0.99219,3.36328 -1.65625,0.48828 c -0.43359,0.12891 -0.67969,0.58203 -0.55469,1.01563 0.10547,0.35547 0.4336,0.58594 0.78516,0.58594 0.0781,0 0.15625,-0.008 0.23047,-0.0312 l 4.8789,-1.4375 c 0.4336,-0.12891 0.67969,-0.58594 0.55469,-1.01563 z m -10.50781,-10.67578 7.09765,-2.09375 c 0.23829,0.35547 0.45704,0.70703 0.64844,1.05469 l -7.71875,2.27343 c -0.0234,-0.39453 -0.0352,-0.80859 -0.0273,-1.23437 z m 4.40625,6.13672 c -1.87891,0 -3.5586,-1.26172 -4.08985,-3.0625 -0.0625,-0.20313 -0.11328,-0.4336 -0.15625,-0.6836 l 8.10157,-2.39062 c 0.0977,0.23437 0.17968,0.45703 0.23828,0.66016 0.66797,2.25781 -0.62891,4.63671 -2.88672,5.30078 -0.39453,0.11718 -0.80078,0.17578 -1.20703,0.17578 z m 0,0"
       fill-opacity="1"
       fill-rule="nonzero"
       id="path103" />
  </g>
  <g
     clip-path="url(#603d4fefa2)"
     id="g109"
     transform="translate(-6.7539058,-39.678555)">
    <path
       fill="#41197f"
       d="m 118.72266,164.97266 h -13.33203 c -0.28125,-8.38672 -2.71485,-14.91407 -7.253911,-19.41797 -6.15625,-6.11328 -13.890625,-6.12891 -14.199219,-6.125 h -9.804688 v -3.11719 c 6.261719,-2.59375 10.222657,-6.91406 12.636719,-10.66016 3.765625,-5.85156 4.617188,-11.48046 4.652344,-11.71875 0.01172,-0.0898 0.01953,-0.18359 0.01953,-0.27734 v -0.42187 c 1.375,-0.33985 2.570313,-1.04688 3.519532,-2.09766 2.773437,-3.07031 2.613281,-7.91016 2.414062,-9.85156 -0.152344,-1.47266 -0.816406,-2.710941 -1.929688,-3.578129 -1.21875,-0.949219 -2.753906,-1.28125 -4.003906,-1.375 V 81.53125 c 7.894532,-0.945312 14.035155,-7.679688 14.035155,-15.824219 0,-8.792969 -7.148436,-15.945312 -15.941405,-15.945312 -1.082031,0 -1.957031,0.878906 -1.957031,1.957031 0,1.082031 0.875,1.960938 1.957031,1.960938 6.632813,0 12.027345,5.394531 12.027345,12.027343 0,6.632813 -5.394532,12.027344 -12.027345,12.027344 -0.0078,0 -0.01563,0 -0.02734,0 -0.0078,0 -0.01562,0 -0.02344,0 -1.082031,0 -1.957031,0.878906 -1.957031,1.957031 v 8.828125 H 39.910156 v -8.828125 c 0,-1.078125 -0.878906,-1.957031 -1.957031,-1.957031 -6.632813,0 -12.03125,-5.394531 -12.03125,-12.027344 0,-6.632812 5.398437,-12.027343 12.03125,-12.027343 6.628906,0 12.027344,5.394531 12.027344,12.027343 0,1.082031 0.875,1.957031 1.957031,1.957031 1.082031,0 1.957031,-0.875 1.957031,-1.957031 0,-2.972656 -0.820312,-5.757812 -2.242187,-8.140625 0,-0.0039 0,-0.0078 0,-0.01172 0,-6.632813 5.398437,-12.03125 12.03125,-12.03125 6.628906,0 12.027344,5.398437 12.027344,12.03125 0,1.078124 0.875,1.957031 1.957031,1.957031 1.082031,0 1.957031,-0.878907 1.957031,-1.957031 0,-8.792969 -7.152344,-15.945313 -15.941406,-15.945313 -7.410156,0 -13.652344,5.078125 -15.433594,11.9375 -2.78125,-2.355469 -6.375,-3.785156 -10.296875,-3.785156 -8.792969,0 -15.945313,7.152343 -15.945313,15.945312 0,8.128907 6.117188,14.851563 13.988282,15.820313 v 14.800781 c -1.257813,0.08984 -2.820313,0.417969 -4.050782,1.378906 -1.113281,0.863281 -1.78125,2.105469 -1.929687,3.578131 -0.199219,1.9414 -0.359375,6.78125 2.410156,9.85156 0.960938,1.0625 2.175781,1.77344 3.566407,2.10937 v 0.41016 c 0,0.0937 0.0078,0.1875 0.02344,0.28125 0.03125,0.23438 0.882813,5.86328 4.648437,11.71484 2.414063,3.7461 6.375,8.06641 12.640626,10.66407 v 3.11328 h -9.792969 c -0.332031,-0.004 -8.058594,0.0117 -14.214844,6.125 -4.535156,4.5039 -6.972656,11.03125 -7.253906,19.41797 H 8.710938 c -1.082032,0 -1.957032,0.875 -1.957032,1.95703 0,1.08203 0.875,1.95703 1.957032,1.95703 H 118.72266 c 1.08203,0 1.95703,-0.875 1.95703,-1.95703 0,-1.08203 -0.875,-1.95703 -1.95703,-1.95703 z M 83.945312,143.34375 c 0.699219,0 16.734378,0.25781 17.527348,21.62891 H 56.890625 c 0.488281,-0.32813 0.808594,-0.88282 0.808594,-1.51172 0,-1 -0.8125,-1.8125 -1.816407,-1.8125 -1.003906,0 -1.816406,0.8125 -1.816406,1.8125 0,0.6289 0.320313,1.18359 0.808594,1.51172 h -8.078125 v -21.29297 c 0,-0.11328 -0.01172,-0.22657 -0.03125,-0.33594 z m 9.089844,-42.55078 c 0.191406,0.14844 0.390625,0.36719 0.445313,0.89062 0.230469,2.28125 -0.01953,5.27344 -1.425781,6.82813 -0.1875,0.20703 -0.390626,0.37891 -0.613282,0.52344 v -8.76953 c 0.601563,0.0703 1.207032,0.22656 1.59375,0.52734 z m -57.703125,7.71875 c -1.402343,-1.55469 -1.65625,-4.54688 -1.421875,-6.82813 0.05078,-0.51953 0.25,-0.73828 0.4375,-0.88671 0.394532,-0.3125 1.023438,-0.46875 1.644532,-0.53516 v 8.80078 c -0.238282,-0.14844 -0.457032,-0.32812 -0.660157,-0.55078 z m 8.703125,15.14062 c -3.0625,-4.70312 -3.984375,-9.35546 -4.125,-10.15625 V 92.4375 h 47.617188 v 21.05859 c -0.144532,0.8086 -1.066406,5.45704 -4.128906,10.15625 -4.386719,6.73438 -10.945313,10.4336 -19.5,11.00391 h -0.363282 c -8.550781,-0.57031 -15.113281,-4.27344 -19.5,-11.00391 z m 19.308594,14.91797 c 0.04297,0 0.08594,0.004 0.128906,0.004 h 0.492188 c 0.04297,0 0.08203,-0.004 0.125,-0.004 2.21875,-0.14453 4.253906,-0.48047 6.128906,-0.96094 v 1.82032 h -13 v -1.82032 c 1.871094,0.48047 3.90625,0.81641 6.125,0.96094 z m -20.4375,4.79688 c -0.01563,0.10547 -0.02734,0.20703 -0.02734,0.3125 v 21.29297 H 25.964844 c 0.714844,-19.34375 13.921875,-21.39063 16.941406,-21.60547 z m 0,0"
       fill-opacity="1"
       fill-rule="nonzero"
       id="path107" />
  </g>
  <path
     fill="#41197f"
     d="m 45.40625,61.360505 c 0,0.3086 -0.0625,0.60547 -0.179687,0.89453 -0.117188,0.28516 -0.285157,0.53516 -0.507813,0.75782 -0.21875,0.21875 -0.46875,0.38672 -0.757812,0.5039 -0.285156,0.1211 -0.582032,0.17969 -0.890625,0.17969 -0.3125,0 -0.609375,-0.0586 -0.894531,-0.17969 -0.289063,-0.11718 -0.539063,-0.28515 -0.757813,-0.5039 -0.21875,-0.22266 -0.390625,-0.47266 -0.507813,-0.75782 -0.117187,-0.28906 -0.179687,-0.58593 -0.179687,-0.89453 0,-0.3125 0.0625,-0.60937 0.179687,-0.89453 0.117188,-0.289061 0.289063,-0.539061 0.507813,-0.757811 0.21875,-0.21875 0.46875,-0.390625 0.757813,-0.507813 0.285156,-0.117187 0.582031,-0.175781 0.894531,-0.175781 0.308593,0 0.605469,0.05859 0.890625,0.175781 0.289062,0.117188 0.539062,0.289063 0.757812,0.507813 0.222656,0.21875 0.390625,0.46875 0.507813,0.757811 0.117187,0.28516 0.179687,0.58203 0.179687,0.89453 z m 0,0"
     fill-opacity="1"
     fill-rule="nonzero"
     id="path111" />
  <path
     fill="#41197f"
     d="m 73.195313,61.360505 c 0,0.3086 -0.05859,0.60547 -0.179688,0.89453 -0.117187,0.28516 -0.285156,0.53516 -0.503906,0.75782 -0.21875,0.21875 -0.472656,0.38672 -0.757813,0.5039 -0.289062,0.1211 -0.585937,0.17969 -0.894531,0.17969 -0.308593,0 -0.609375,-0.0586 -0.894531,-0.17969 -0.285156,-0.11718 -0.539062,-0.28515 -0.757812,-0.5039 -0.21875,-0.22266 -0.386719,-0.47266 -0.507813,-0.75782 -0.117187,-0.28906 -0.175781,-0.58593 -0.175781,-0.89453 0,-0.3125 0.05859,-0.60937 0.175781,-0.89453 0.121094,-0.289061 0.289063,-0.539061 0.507813,-0.757811 0.21875,-0.21875 0.472656,-0.390625 0.757812,-0.507813 0.285156,-0.117187 0.585938,-0.175781 0.894531,-0.175781 0.308594,0 0.605469,0.05859 0.894531,0.175781 0.285157,0.117188 0.539063,0.289063 0.757813,0.507813 0.21875,0.21875 0.386719,0.46875 0.503906,0.757811 0.121094,0.28516 0.179688,0.58203 0.179688,0.89453 z m 0,0"
     fill-opacity="1"
     fill-rule="nonzero"
     id="path113" />
  <path
     fill="#41197f"
     d="m 50.945313,117.34097 c 0,0.24219 -0.04687,0.47266 -0.140625,0.69531 -0.08984,0.22266 -0.222656,0.41797 -0.394532,0.58985 -0.167968,0.16797 -0.363281,0.30078 -0.585937,0.39062 -0.222656,0.0937 -0.453125,0.14063 -0.695313,0.14063 -0.242187,0 -0.472656,-0.0469 -0.695312,-0.14063 -0.222656,-0.0898 -0.417969,-0.22265 -0.589844,-0.39062 -0.167968,-0.17188 -0.300781,-0.36719 -0.390625,-0.58985 -0.09375,-0.22265 -0.140625,-0.45312 -0.140625,-0.69531 0,-0.24219 0.04687,-0.47266 0.140625,-0.69531 0.08984,-0.22266 0.222657,-0.41797 0.390625,-0.58985 0.171875,-0.16796 0.367188,-0.30078 0.589844,-0.39062 0.222656,-0.0937 0.453125,-0.14063 0.695312,-0.14063 0.242188,0 0.472657,0.0469 0.695313,0.14063 0.222656,0.0898 0.417969,0.22266 0.585937,0.39062 0.171876,0.17188 0.304688,0.36719 0.394532,0.58985 0.09375,0.22265 0.140625,0.45312 0.140625,0.69531 z m 0,0"
     fill-opacity="1"
     fill-rule="nonzero"
     id="path115" />
  <path
     fill="#41197f"
     d="m 50.945313,110.89956 c 0,0.23829 -0.04687,0.47266 -0.140625,0.69532 -0.08984,0.22265 -0.222656,0.41797 -0.394532,0.58593 -0.167968,0.17188 -0.363281,0.30469 -0.585937,0.39454 -0.222656,0.0937 -0.453125,0.14062 -0.695313,0.14062 -0.242187,0 -0.472656,-0.0469 -0.695312,-0.14062 -0.222656,-0.0898 -0.417969,-0.22266 -0.589844,-0.39454 -0.167968,-0.16796 -0.300781,-0.36328 -0.390625,-0.58593 -0.09375,-0.22266 -0.140625,-0.45703 -0.140625,-0.69532 0,-0.24218 0.04687,-0.47265 0.140625,-0.69531 0.08984,-0.22265 0.222657,-0.41797 0.390625,-0.58984 0.171875,-0.16797 0.367188,-0.30078 0.589844,-0.39453 0.222656,-0.0898 0.453125,-0.13672 0.695312,-0.13672 0.242188,0 0.472657,0.0469 0.695313,0.13672 0.222656,0.0937 0.417969,0.22656 0.585937,0.39453 0.171876,0.17187 0.304688,0.36719 0.394532,0.58984 0.09375,0.22266 0.140625,0.45313 0.140625,0.69531 z m 0,0"
     fill-opacity="1"
     fill-rule="nonzero"
     id="path117" />
  <path
     fill="#41197f"
     d="m 56.457032,74.075355 h 1.011718 c 2.523438,0 4.582032,-2 4.6875,-4.4961 0.0078,-0.0664 0.01172,-0.13281 0.01172,-0.19922 v -7.69921 c 0,-1.08204 -0.878906,-1.957036 -1.960937,-1.957036 -1.078126,0 -1.957032,0.874996 -1.957032,1.957036 v 7.69921 c 0,0.42969 -0.351562,0.78125 -0.78125,0.78125 h -1.011718 c -0.429688,0 -0.78125,-0.35156 -0.78125,-0.78125 0,-1.08203 -0.875,-1.95703 -1.957032,-1.95703 -1.082031,0 -1.957031,0.875 -1.957031,1.95703 0,2.58985 2.105469,4.69532 4.695312,4.69532 z m 0,0"
     fill-opacity="1"
     fill-rule="nonzero"
     id="path119" />
  <path
     fill="#41197f"
     d="m 69.097656,83.555825 c 0.679688,-0.84375 0.546876,-2.07422 -0.292968,-2.75391 -0.84375,-0.67969 -2.074219,-0.54688 -2.753906,0.29687 -0.01953,0.0234 -2.371094,2.59375 -8.605469,2.59375 -6.476563,0 -9.632813,-2.6875 -9.785157,-2.82421 -0.800781,-0.71485 -2.027343,-0.65625 -2.753906,0.14062 -0.730468,0.79688 -0.671875,2.03516 0.128906,2.76563 0.167969,0.15625 4.296876,3.83203 12.410157,3.83203 8.152343,0 11.320312,-3.63672 11.652343,-4.05078 z m 0,0"
     fill-opacity="1"
     fill-rule="nonzero"
     id="path121" />
</svg>
