<?xml version="1.0" encoding="UTF-8" standalone="no"?>
<svg
   width="466.40305"
   zoomAndPan="magnify"
   viewBox="0 0 349.80228 344.42087"
   height="459.22784"
   preserveAspectRatio="xMidYMid"
   version="1.0"
   id="svg757"
   sodipodi:docname="LogoApp.svg"
   xmlns:inkscape="http://www.inkscape.org/namespaces/inkscape"
   xmlns:sodipodi="http://sodipodi.sourceforge.net/DTD/sodipodi-0.dtd"
   xmlns="http://www.w3.org/2000/svg"
   xmlns:svg="http://www.w3.org/2000/svg">
  <sodipodi:namedview
     id="namedview759"
     pagecolor="#ffffff"
     bordercolor="#000000"
     borderopacity="0.25"
     inkscape:showpageshadow="2"
     inkscape:pageopacity="0.0"
     inkscape:pagecheckerboard="0"
     inkscape:deskcolor="#d1d1d1"
     showgrid="false" />
  <defs
     id="defs631">
    <clipPath
       id="dc18acb9c5">
      <path
         d="M 22.355469,0 H 334 V 306.50781 H 22.355469 Z m 0,0"
         clip-rule="nonzero"
         id="path607" />
    </clipPath>
    <clipPath
       id="d0489b49f0">
      <path
         d="M 38.085938,0 H 318.32031 c 4.17188,0 8.17188,1.65625 11.1211,4.605469 2.94921,2.949219 4.60546,6.949219 4.60546,11.121093 V 290.78125 c 0,4.17187 -1.65625,8.17187 -4.60546,11.12109 -2.94922,2.94922 -6.94922,4.60547 -11.1211,4.60547 H 38.085938 c -4.171876,0 -8.171876,-1.65625 -11.121094,-4.60547 -2.949219,-2.94922 -4.609375,-6.94922 -4.609375,-11.12109 V 15.726562 c 0,-4.171874 1.660156,-8.171874 4.609375,-11.121093 C 29.914062,1.65625 33.914062,0 38.085938,0 Z m 0,0"
         clip-rule="nonzero"
         id="path610" />
    </clipPath>
    <clipPath
       id="3267ab2454">
      <path
         d="M 38.3125,12.097656 H 318.09375 V 291.87891 H 38.3125 Z m 0,0"
         clip-rule="nonzero"
         id="path613" />
    </clipPath>
    <clipPath
       id="7496f9923a">
      <path
         d="m 178.20312,12.097656 c -77.25781,0 -139.89062,62.632813 -139.89062,139.890624 0,77.25781 62.63281,139.89063 139.89062,139.89063 77.25782,0 139.89063,-62.63282 139.89063,-139.89063 0,-77.257811 -62.63281,-139.890624 -139.89063,-139.890624 z m 0,0"
         clip-rule="nonzero"
         id="path616" />
    </clipPath>
    <clipPath
       id="a6fa591f2c">
      <path
         d="M 38.3125,12.097656 H 318.08984 V 291.875 H 38.3125 Z m 0,0"
         clip-rule="nonzero"
         id="path619" />
    </clipPath>
    <clipPath
       id="7d41d1dfae">
      <path
         d="m 178.20312,12.097656 c -77.25781,0 -139.89062,62.632813 -139.89062,139.890624 0,77.25781 62.63281,139.88672 139.89062,139.88672 77.25782,0 139.88672,-62.62891 139.88672,-139.88672 0,-77.257811 -62.6289,-139.890624 -139.88672,-139.890624 z m 0,0"
         clip-rule="nonzero"
         id="path622" />
    </clipPath>
    <clipPath
       id="9a27bcebce">
      <path
         d="m 235,99.683594 h 18 V 124 h -18 z m 0,0"
         clip-rule="nonzero"
         id="path625" />
    </clipPath>
    <clipPath
       id="bc9920db0e">
      <path
         d="M 122,16.226562 H 235 V 140.90625 H 122 Z m 0,0"
         clip-rule="nonzero"
         id="path628" />
    </clipPath>
  </defs>
  <g
     clip-path="url(#dc18acb9c5)"
     id="g637"
     transform="matrix(1.1236936,0,0,1.1236936,-25.120698,-6.2641146e-8)">
    <g
       clip-path="url(#d0489b49f0)"
       id="g635">
      <path
         fill="#ff5757"
         d="M 22.355469,0 H 333.65234 V 306.50781 H 22.355469 Z m 0,0"
         fill-opacity="1"
         fill-rule="nonzero"
         id="path633" />
    </g>
  </g>
  <g
     clip-path="url(#3267ab2454)"
     id="g643"
     transform="matrix(1.1236936,0,0,1.1236936,-25.120698,-6.2641146e-8)">
    <g
       clip-path="url(#7496f9923a)"
       id="g641">
      <path
         fill="#f8f4e3"
         d="M 38.3125,12.097656 H 318.09375 V 291.87891 H 38.3125 Z m 0,0"
         fill-opacity="1"
         fill-rule="nonzero"
         id="path639" />
    </g>
  </g>
  <g
     clip-path="url(#a6fa591f2c)"
     id="g649"
     transform="matrix(1.1236936,0,0,1.1236936,-25.120698,-6.2641146e-8)">
    <g
       clip-path="url(#7d41d1dfae)"
       id="g647">
      <path
         stroke-linecap="butt"
         transform="matrix(0.804393,0,0,0.804393,38.313408,12.098368)"
         fill="none"
         stroke-linejoin="miter"
         d="m 173.90721,-8.84919e-4 c -96.044877,0 -173.90833912,77.863461919 -173.90833912,173.908334919 0,96.04488 77.86346212,173.90348 173.90833912,173.90348 96.04487,0 173.90348,-77.8586 173.90348,-173.90348 0,-96.044873 -77.85861,-173.908334919 -173.90348,-173.908334919 z m 0,0"
         stroke="#000000"
         stroke-width="3.72419"
         stroke-opacity="1"
         stroke-miterlimit="4"
         id="path645" />
    </g>
  </g>
  <path
     fill="#ff5757"
     d="m 239.83397,127.46022 -13.39654,-2.98921 c -0.5399,-0.11851 -1.09735,0.11412 -1.39145,0.5838 -1.3651,2.16838 -2.37028,4.41137 -2.75655,6.14959 -1.03591,4.65279 1.56263,9.27925 5.90817,10.90333 l -1.22465,5.4868 -2.69511,-0.60136 c -0.7067,-0.15801 -1.40462,0.28532 -1.55825,0.99201 -0.15803,0.70231 0.28532,1.40023 0.98762,1.55825 l 7.94487,1.77333 c 0.0965,0.0219 0.18874,0.0307 0.2853,0.0307 0.59696,0 1.13687,-0.41261 1.27295,-1.02274 0.15801,-0.70231 -0.28532,-1.40023 -0.99202,-1.55824 l -2.6951,-0.60136 1.22464,-5.48678 c 0.25459,0.0175 0.50918,0.0351 0.76815,0.0351 2.11132,0 4.1919,-0.72865 5.85989,-2.04548 1.68992,-1.33877 2.87947,-3.2394 3.34914,-5.3507 0.38627,-1.73822 0.43016,-4.1963 0.11851,-6.73778 -0.0659,-0.54868 -0.47406,-0.99641 -1.00957,-1.1193 z m -13.04977,-0.23264 11.56175,2.58098 c 0.0615,0.68036 0.0878,1.34316 0.0922,1.97963 l -12.57572,-2.80923 c 0.26777,-0.57063 0.57941,-1.16321 0.92179,-1.75138 z m 11.39057,7.52348 c -0.68915,3.09893 -3.49399,5.34632 -6.65877,5.34632 -0.50039,0 -1.00079,-0.0527 -1.4968,-0.16241 -3.67833,-0.82083 -6.00034,-4.48161 -5.17952,-8.15995 0.0746,-0.33359 0.17996,-0.69353 0.31165,-1.0798 l 13.19902,2.94531 c -0.0439,0.40382 -0.10091,0.77692 -0.17558,1.11053 z m 0,0"
     fill-opacity="1"
     fill-rule="nonzero"
     id="path651"
     style="stroke-width:1.12369" />
  <g
     clip-path="url(#9a27bcebce)"
     id="g655"
     transform="matrix(1.1236936,0,0,1.1236936,-25.120698,-6.2641146e-8)">
    <path
       fill="#ff5757"
       d="m 252.33594,120.35156 c -0.17969,-0.61718 -0.82813,-0.96875 -1.44532,-0.78906 l -2.35156,0.69531 -1.41015,-4.78515 c 3.7539,-1.69922 5.78515,-5.95703 4.58593,-10.01953 -0.44922,-1.51954 -1.47265,-3.44922 -2.80859,-5.28907 -0.28906,-0.398435 -0.79688,-0.57031 -1.26953,-0.433591 l -11.69531,3.449221 c -0.47266,0.14062 -0.80469,0.5625 -0.83204,1.05078 -0.125,2.27344 0.0586,4.44922 0.50782,5.96875 1.04297,3.54687 4.35156,6.02344 8.04687,6.02344 0.41406,0 0.82813,-0.0312 1.23828,-0.0937 l 1.40625,4.78515 -2.35156,0.69532 c -0.61719,0.17968 -0.96875,0.82812 -0.78516,1.4414 0.14844,0.50781 0.61329,0.83594 1.11329,0.83594 0.10937,0 0.21875,-0.0156 0.32812,-0.0469 l 6.9375,-2.04687 c 0.61328,-0.17969 0.96484,-0.82813 0.78516,-1.44141 z m -14.9336,-15.17578 10.08985,-2.97656 c 0.33593,0.5 0.64843,1.00391 0.92187,1.49609 l -10.97656,3.23438 c -0.0352,-0.5586 -0.0469,-1.15235 -0.0352,-1.75391 z m 6.26172,8.72266 c -2.67187,0 -5.0625,-1.79297 -5.8164,-4.35547 -0.0859,-0.28906 -0.16016,-0.61719 -0.22266,-0.97266 l 11.51953,-3.39453 c 0.14063,0.33203 0.25391,0.64453 0.33984,0.9336 0.94532,3.21093 -0.89453,6.59375 -4.10156,7.53906 h -0.004 c -0.5586,0.16797 -1.13672,0.25 -1.71485,0.25 z m 0,0"
       fill-opacity="1"
       fill-rule="nonzero"
       id="path653" />
  </g>
  <g
     clip-path="url(#bc9920db0e)"
     id="g659"
     transform="matrix(1.1236936,0,0,1.1236936,-25.120698,-6.2641146e-8)">
    <path
       fill="#ff5757"
       d="m 232.14062,137.20312 h -13.07421 c -0.27344,-8.22265 -2.66407,-14.62109 -7.11329,-19.03906 -6.03906,-5.99609 -13.62109,-6.01172 -13.92578,-6.00781 h -9.61718 v -3.05469 c 6.14453,-2.54687 10.02734,-6.78515 12.39453,-10.457029 3.69531,-5.738281 4.52734,-11.257812 4.5625,-11.488281 0.0117,-0.09375 0.0195,-0.183594 0.0195,-0.277344 V 86.46875 c 1.34765,-0.332031 2.51953,-1.027344 3.45312,-2.058594 2.71875,-3.011718 2.5586,-7.757812 2.36719,-9.660156 -0.14844,-1.449219 -0.80469,-2.660156 -1.89453,-3.511719 -1.19531,-0.929687 -2.70313,-1.257812 -3.92578,-1.347656 V 55.375 c 7.74219,-0.925781 13.76562,-7.53125 13.76562,-15.519531 0,-8.621094 -7.01562,-15.632813 -15.63672,-15.632813 -1.05859,0 -1.91796,0.859375 -1.91796,1.917969 0,1.058594 0.85937,1.921875 1.91796,1.921875 6.50391,0 11.79688,5.289062 11.79688,11.792969 0,6.503906 -5.29297,11.796875 -11.79688,11.796875 -0.008,0 -0.0156,0 -0.0234,0 -0.008,0 -0.0156,0 -0.0273,0 -1.05859,0 -1.91797,0.859375 -1.91797,1.921875 v 8.65625 h -46.69921 v -8.65625 c 0,-1.0625 -0.85938,-1.921875 -1.91797,-1.921875 -6.50391,0 -11.79688,-5.292969 -11.79688,-11.796875 0,-6.503907 5.29297,-11.792969 11.79688,-11.792969 6.5039,0 11.79687,5.289062 11.79687,11.792969 0,1.0625 0.85938,1.921875 1.91797,1.921875 1.0625,0 1.92188,-0.859375 1.92188,-1.921875 0,-2.914063 -0.80469,-5.644531 -2.19922,-7.980469 0,-0.0039 0,-0.01172 0,-0.01563 0,-6.503906 5.29297,-11.792969 11.79687,-11.792969 6.50391,0 11.79297,5.289063 11.79297,11.792969 0,1.0625 0.85938,1.921875 1.92188,1.921875 1.05859,0 1.91796,-0.859375 1.91796,-1.921875 0,-8.621094 -7.01171,-15.632813 -15.63281,-15.632813 -7.26562,0 -13.39062,4.980469 -15.13672,11.707032 -2.72656,-2.3125 -6.25,-3.710938 -10.09765,-3.710938 -8.6211,0 -15.63672,7.011719 -15.63672,15.632813 0,7.972656 6,14.566406 13.71875,15.515625 v 14.515625 c -1.23438,0.08594 -2.76563,0.410156 -3.97266,1.351562 -1.08984,0.847657 -1.74609,2.0625 -1.89453,3.511719 -0.19141,1.902344 -0.35156,6.648438 2.36719,9.660156 0.9414,1.042969 2.1289,1.738282 3.49609,2.066406 v 0.402344 c 0,0.09375 0.008,0.183594 0.0234,0.277344 0.0312,0.230469 0.86719,5.75 4.55859,11.488281 2.36719,3.671884 6.25,7.910164 12.39453,10.457034 v 3.05469 h -9.60156 c -0.32422,-0.004 -7.90234,0.0117 -13.9414,6.00781 -4.44922,4.41797 -6.83594,10.8164 -7.11329,19.04297 h -13.07421 c -1.0586,0 -1.92188,0.85937 -1.92188,1.91797 0,1.05859 0.86328,1.91796 1.92188,1.91796 h 107.88671 c 1.0625,0 1.92188,-0.85937 1.92188,-1.91796 0,-1.0625 -0.85938,-1.92188 -1.92188,-1.92188 z m -34.10546,-21.20703 c 0.68359,0 16.41015,0.25391 17.1875,21.20703 h -43.71875 c 0.47656,-0.3164 0.78906,-0.86328 0.78906,-1.48046 0,-0.98047 -0.79688,-1.77735 -1.77735,-1.77735 -0.98437,0 -1.78125,0.79688 -1.78125,1.77735 0,0.61718 0.3125,1.16406 0.79297,1.48046 h -7.92578 v -20.8789 c 0,-0.11328 -0.0117,-0.22266 -0.0273,-0.32813 z m 8.91406,-41.730465 c 0.1875,0.144531 0.38281,0.363281 0.4375,0.875 0.22656,2.234375 -0.0195,5.167969 -1.39844,6.695313 -0.18359,0.203124 -0.38672,0.371093 -0.60156,0.511718 V 73.75 c 0.58984,0.06641 1.18359,0.21875 1.5625,0.515625 z m -56.58985,7.570313 c -1.375,-1.527344 -1.62109,-4.460938 -1.39453,-6.695313 0.0508,-0.511719 0.2461,-0.726563 0.42969,-0.871094 0.38672,-0.304687 1.00391,-0.460937 1.61328,-0.527343 v 8.636718 c -0.23437,-0.148437 -0.44922,-0.324218 -0.64844,-0.542968 z m 8.53516,14.847656 c -3.00391,-4.609375 -3.90625,-9.175782 -4.04687,-9.960938 V 66.070312 h 46.69921 v 20.652344 c -0.14062,0.792969 -1.04687,5.355469 -4.04687,9.960938 -4.30078,6.601566 -10.73828,10.234376 -19.125,10.792966 h -0.35547 c -8.38672,-0.55859 -14.82031,-4.1914 -19.125,-10.792966 z m 18.9375,14.628906 c 0.043,0 0.082,0.004 0.125,0.004 h 0.48047 c 0.043,0 0.0859,0 0.125,-0.004 2.17578,-0.14062 4.17187,-0.46875 6.00781,-0.94141 v 1.78516 h -12.74609 v -1.78516 c 1.83594,0.47266 3.83203,0.80079 6.00781,0.94141 z m -20.04297,4.70703 c -0.0156,0.10156 -0.0273,0.19922 -0.0273,0.30469 v 20.8789 h -16.58985 c 0.70313,-18.96484 13.65235,-20.97265 16.61719,-21.18359 z m 0,0"
       fill-opacity="1"
       fill-rule="nonzero"
       id="path657" />
  </g>
  <path
     fill="#ff5757"
     d="m 162.38251,83.719563 c 0,0.342376 -0.0659,0.671582 -0.19752,0.987621 -0.13169,0.316039 -0.31604,0.592573 -0.55746,0.833992 -0.24142,0.241418 -0.52234,0.430163 -0.834,0.557457 -0.31604,0.131683 -0.64523,0.197524 -0.98761,0.197524 -0.34238,0 -0.6672,-0.06584 -0.98323,-0.197524 -0.31604,-0.127294 -0.59697,-0.316039 -0.83839,-0.557457 -0.24142,-0.241419 -0.42577,-0.517953 -0.55746,-0.833992 -0.13168,-0.316039 -0.19313,-0.645245 -0.19313,-0.987621 0,-0.337986 0.0615,-0.667193 0.19313,-0.983232 0.13169,-0.316039 0.31604,-0.592573 0.55746,-0.833991 0.24142,-0.241419 0.52235,-0.430165 0.83839,-0.557458 0.31603,-0.131682 0.64085,-0.197524 0.98323,-0.197524 0.34238,0 0.67157,0.06584 0.98761,0.197524 0.31166,0.127293 0.59258,0.316039 0.834,0.557458 0.24142,0.241418 0.42577,0.517952 0.55746,0.833991 0.13167,0.316039 0.19752,0.645246 0.19752,0.983232 z m 0,0"
     fill-opacity="1"
     fill-rule="nonzero"
     id="path661"
     style="stroke-width:1.12369" />
  <path
     fill="#ff5757"
     d="m 193.00755,83.719563 c 0,0.342376 -0.0658,0.671582 -0.19753,0.987621 -0.13168,0.316039 -0.31604,0.592573 -0.55745,0.833992 -0.24143,0.241418 -0.52235,0.430163 -0.83399,0.557457 -0.31604,0.131683 -0.64525,0.197524 -0.98763,0.197524 -0.34237,0 -0.66719,-0.06584 -0.98323,-0.197524 -0.31604,-0.127294 -0.59696,-0.316039 -0.83838,-0.557457 -0.24141,-0.241419 -0.42578,-0.517953 -0.55745,-0.833992 -0.13169,-0.316039 -0.19314,-0.645245 -0.19314,-0.987621 0,-0.337986 0.0615,-0.667193 0.19314,-0.983232 0.13167,-0.316039 0.31604,-0.592573 0.55745,-0.833991 0.24142,-0.241419 0.52234,-0.430165 0.83838,-0.557458 0.31604,-0.131682 0.64086,-0.197524 0.98323,-0.197524 0.34238,0 0.67159,0.06584 0.98763,0.197524 0.31164,0.127293 0.59256,0.316039 0.83399,0.557458 0.24141,0.241418 0.42577,0.517952 0.55745,0.833991 0.13169,0.316039 0.19753,0.645246 0.19753,0.983232 z m 0,0"
     fill-opacity="1"
     fill-rule="nonzero"
     id="path663"
     style="stroke-width:1.12369" />
  <path
     fill="#ff5757"
     d="m 168.48381,145.41298 c 0,0.26775 -0.0483,0.52233 -0.14924,0.76376 -0.10529,0.24581 -0.24581,0.46528 -0.43455,0.64963 -0.18875,0.18875 -0.40382,0.3336 -0.64963,0.43455 -0.24581,0.10102 -0.50039,0.15363 -0.76377,0.15363 -0.26775,0 -0.52233,-0.0527 -0.76814,-0.15363 -0.24581,-0.1009 -0.4609,-0.2458 -0.64964,-0.43455 -0.18436,-0.18435 -0.32921,-0.40382 -0.43456,-0.64963 -0.10091,-0.24143 -0.14924,-0.49601 -0.14924,-0.76376 0,-0.26336 0.0483,-0.51796 0.14924,-0.76377 0.10529,-0.24581 0.2502,-0.46088 0.43456,-0.64963 0.18874,-0.18874 0.40383,-0.3336 0.64964,-0.43455 0.24581,-0.10091 0.50039,-0.15363 0.76814,-0.15363 0.26338,0 0.51796,0.0527 0.76377,0.15363 0.24581,0.10091 0.46088,0.24581 0.64963,0.43455 0.18874,0.18875 0.32921,0.40382 0.43455,0.64963 0.10091,0.24581 0.14924,0.50041 0.14924,0.76377 z m 0,0"
     fill-opacity="1"
     fill-rule="nonzero"
     id="path665"
     style="stroke-width:1.12369" />
  <path
     fill="#ff5757"
     d="m 168.48381,138.31527 c 0,0.26337 -0.0483,0.51795 -0.14924,0.76376 -0.10529,0.24581 -0.24581,0.46089 -0.43455,0.64964 -0.18875,0.18875 -0.40382,0.33359 -0.64963,0.43456 -0.24581,0.1009 -0.50039,0.14923 -0.76377,0.14923 -0.26775,0 -0.52233,-0.0483 -0.76814,-0.14923 -0.24581,-0.10091 -0.4609,-0.24581 -0.64964,-0.43456 -0.18436,-0.18875 -0.32921,-0.40383 -0.43456,-0.64964 -0.10091,-0.24581 -0.14924,-0.50039 -0.14924,-0.76376 0,-0.26776 0.0483,-0.52234 0.14924,-0.76815 0.10529,-0.24581 0.2502,-0.46089 0.43456,-0.64963 0.18874,-0.18436 0.40383,-0.32921 0.64964,-0.43017 0.24581,-0.10091 0.50039,-0.15363 0.76814,-0.15363 0.26338,0 0.51796,0.0527 0.76377,0.15363 0.24581,0.10091 0.46088,0.24581 0.64963,0.43017 0.18874,0.18874 0.32921,0.40382 0.43455,0.64963 0.10091,0.24581 0.14924,0.50039 0.14924,0.76815 z m 0,0"
     fill-opacity="1"
     fill-rule="nonzero"
     id="path667"
     style="stroke-width:1.12369" />
  <path
     fill="#ff5757"
     d="m 174.56317,97.73501 h 1.11053 c 2.78289,0 5.05223,-2.203496 5.16636,-4.955668 0.009,-0.07023 0.0131,-0.14485 0.0131,-0.21947 v -8.484766 c 0,-1.189534 -0.96568,-2.155208 -2.1596,-2.155208 -1.18953,0 -2.15521,0.965674 -2.15521,2.155208 v 8.484766 c 0,0.474058 -0.38627,0.860327 -0.86472,0.860327 h -1.11052 c -0.47845,0 -0.86472,-0.386269 -0.86472,-0.860327 0,-1.193925 -0.96568,-2.159599 -2.15521,-2.159599 -1.19392,0 -2.15959,0.965674 -2.15959,2.159599 0,2.853127 2.32639,5.175138 5.17952,5.175138 z m 0,0"
     fill-opacity="1"
     fill-rule="nonzero"
     id="path669"
     style="stroke-width:1.12369" />
  <path
     fill="#ff5757"
     d="m 188.49083,108.18185 c 0.75059,-0.92617 0.60135,-2.2869 -0.32482,-3.0331 -0.92617,-0.75059 -2.2825,-0.60135 -3.0331,0.32482 -0.0219,0.0263 -2.61171,2.85752 -9.48116,2.85752 -7.13721,0 -10.61363,-2.95848 -10.78483,-3.10772 -0.88227,-0.79448 -2.2386,-0.72425 -3.03748,0.14924 -0.80326,0.88228 -0.73742,2.24739 0.14046,3.04627 0.19313,0.17557 4.74059,4.22701 13.68185,4.22701 8.98077,0 12.47037,-4.00754 12.83908,-4.46404 z m 0,0"
     fill-opacity="1"
     fill-rule="nonzero"
     id="path671"
     style="stroke-width:1.12369" />
  <path
     stroke-linecap="butt"
     fill="none"
     stroke-linejoin="miter"
     d="m 72.337796,236.4234 c -6.557808,0 -11.583706,2.01036 -15.077692,6.02669 -3.498375,3.99438 -5.245368,9.65675 -5.245368,16.9827 0,7.40937 1.935739,13.12002 5.807215,17.13634 3.871478,3.99877 9.094899,5.99597 15.670266,5.99597 3.498376,0 6.452461,-0.46968 8.866649,-1.40462 2.436133,-0.93495 4.76692,-1.9972 6.992361,-3.18673 1.435345,1.18953 2.559038,2.61611 3.371083,4.2797 0.812044,1.66358 1.215872,3.59933 1.215872,5.80721 0,3.49398 -1.944518,6.46124 -5.837942,8.89738 -3.867089,2.43174 -9.770871,3.652 -17.698183,3.652 -5.701869,0 -11.07453,-0.81205 -16.109207,-2.43613 -5.017119,-1.62409 -9.406548,-4.12168 -13.17268,-7.49276 -3.748574,-3.37108 -6.715827,-7.62883 -8.897375,-12.76885 -2.168378,-5.16197 -3.248178,-11.32034 -3.248178,-18.47951 0,-6.65876 1.040294,-12.51865 3.120885,-17.57527 2.102537,-5.07857 4.964446,-9.36704 8.585725,-12.86542 3.62128,-3.49399 7.85708,-6.13642 12.7074,-7.92731 4.867878,-1.79088 10.073741,-2.68633 15.608813,-2.68633 7.843911,0 13.923272,1.28172 18.229303,3.84075 4.310421,2.55904 6.465631,5.83795 6.465631,9.83232 0,2.22983 -0.561847,4.15241 -1.689931,5.77649 -1.101747,1.60214 -2.370292,2.87069 -3.805637,3.81003 -2.229828,-1.43535 -4.600121,-2.66439 -7.119654,-3.68274 -2.497586,-1.02273 -5.412168,-1.53191 -8.739356,-1.53191 z m 102.787294,61.37741 c -0.93495,0.2502 -2.40542,0.50039 -4.4026,0.7462 -1.9972,0.2502 -3.98561,0.37749 -5.96085,0.37749 -1.95769,0 -3.68712,-0.14485 -5.18391,-0.43895 -1.47924,-0.2897 -2.72585,-0.82082 -3.74419,-1.59336 -1.02273,-0.76815 -1.79089,-1.83039 -2.31323,-3.18234 -0.51795,-1.37388 -0.78132,-3.16478 -0.78132,-5.36826 v -19.94997 h -24.53691 v 29.40919 c -0.93495,0.2502 -2.41419,0.50039 -4.43333,0.7462 -1.99719,0.2502 -3.97243,0.37749 -5.93011,0.37749 -1.95769,0 -3.68274,-0.14485 -5.18393,-0.43895 -1.47485,-0.2897 -2.73461,-0.82082 -3.7749,-1.59336 -1.02274,-0.76815 -1.79089,-1.83039 -2.31323,-3.18234 -0.49601,-1.37388 -0.74621,-3.16478 -0.74621,-5.36826 v -67.527 c 0.93495,-0.1668 2.42297,-0.39504 4.46406,-0.68475 2.05864,-0.31604 4.0251,-0.46966 5.89939,-0.46966 1.95768,0 3.68273,0.15362 5.18391,0.46966 1.4968,0.28971 2.75657,0.82082 3.77491,1.58898 1.02274,0.75059 1.78211,1.81283 2.27812,3.18672 0.52234,1.35194 0.78132,3.14283 0.78132,5.36827 v 20.44597 h 24.53691 v -29.90519 c 0.96128,-0.1668 2.45809,-0.39504 4.49916,-0.68475 2.0367,-0.31604 3.99439,-0.46966 5.86867,-0.46966 1.9533,0 3.68274,0.15362 5.17953,0.46966 1.50119,0.28971 2.76095,0.82082 3.7793,1.58898 1.01835,0.75059 1.77772,1.81283 2.27812,3.18672 0.52234,1.35194 0.78132,3.14283 0.78132,5.36827 z m 16.61399,-65.09087 c 0,-3.66517 1.06223,-6.5578 3.18233,-8.6779 2.14643,-2.14642 5.04784,-3.21745 8.70864,-3.21745 h 42.20875 c 0.60575,0.93495 1.13686,2.17276 1.59336,3.71346 0.47845,1.51874 0.71548,3.13405 0.71548,4.84154 0,3.24378 -0.70669,5.55702 -2.12009,6.93092 -1.41779,1.35193 -3.27013,2.0279 -5.55702,2.0279 h -26.97305 v 11.89537 h 28.75077 c 0.60574,0.93494 1.13686,2.15081 1.59336,3.652 0.47845,1.47485 0.71986,3.06821 0.71986,4.7757 0,3.24818 -0.68914,5.55701 -2.06302,6.93091 -1.35195,1.35195 -3.18234,2.02792 -5.49557,2.02792 h -23.5054 v 13.42288 h 32.84172 c 0.60135,0.93934 1.13247,2.17715 1.59337,3.71784 0.47844,1.54069 0.71546,3.15161 0.71546,4.83715 0,3.24818 -0.70669,5.57897 -2.12009,6.99236 -1.39583,1.39584 -3.24817,2.09376 -5.55702,2.09376 h -37.34087 c -3.6608,0 -6.56221,-1.06224 -8.70864,-3.18673 -2.1201,-2.14204 -3.18233,-5.04345 -3.18233,-8.70862 z m 124.5413,-11.89535 c 0.60135,0.93495 1.13246,2.19472 1.58897,3.7793 0.47845,1.55825 0.71987,3.19112 0.71987,4.89861 0,3.33157 -0.70671,5.70186 -2.12449,7.11965 -1.39145,1.39145 -3.28768,2.08937 -5.67992,2.08937 h -26.85015 v 14.45439 h 28.00457 c 0.68475,0.93934 1.25976,2.17716 1.71626,3.71785 0.47845,1.53631 0.71988,3.16039 0.71988,4.86788 0,3.22623 -0.70671,5.54823 -2.12449,6.96164 -1.39584,1.39583 -3.28768,2.09375 -5.67993,2.09375 h -22.38608 v 27.00378 c -0.93495,0.2502 -2.41419,0.50039 -4.43334,0.7462 -1.99718,0.2502 -3.97242,0.37749 -5.93011,0.37749 -1.95769,0 -3.68274,-0.14485 -5.18391,-0.43895 -1.47486,-0.2897 -2.73462,-0.82082 -3.77492,-1.59336 -1.02274,-0.76815 -1.79088,-1.83039 -2.30884,-3.18234 -0.50039,-1.37388 -0.75059,-3.16478 -0.75059,-5.36826 v -55.63165 c 0,-3.66517 1.06224,-6.5578 3.18233,-8.6779 2.14644,-2.14642 5.04785,-3.21745 8.71302,-3.21745 z m 0,0"
     stroke="#000000"
     stroke-width="3.19678"
     stroke-opacity="1"
     stroke-miterlimit="4"
     id="path673" />
  <g
     fill="#ffbd59"
     fill-opacity="1"
     id="g681"
     transform="matrix(1.1236936,0,0,1.1236936,-25.120698,-6.2641146e-8)">
    <g
       transform="translate(44.167436,265.46293)"
       id="g679">
      <g
         id="g677">
        <path
           d="m 42.5625,-55.078125 c -5.84375,0 -10.324219,1.789063 -13.4375,5.359375 -3.105469,3.5625 -4.65625,8.605469 -4.65625,15.125 0,6.605469 1.722656,11.6875 5.171875,15.25 3.457031,3.5625 8.101563,5.34375 13.9375,5.34375 3.113281,0 5.75,-0.414062 7.90625,-1.25 2.164063,-0.832031 4.234375,-1.78125 6.203125,-2.84375 1.289062,1.0625 2.296875,2.335938 3.015625,3.8125 0.726563,1.480469 1.09375,3.203125 1.09375,5.171875 0,3.117187 -1.730469,5.757813 -5.1875,7.921875 -3.449219,2.15625 -8.699219,3.234375 -15.75,3.234375 -5.085937,0 -9.867187,-0.71875 -14.34375,-2.15625 -4.480469,-1.445313 -8.390625,-3.664063 -11.734375,-6.65625 -3.335938,-3 -5.96875,-6.789063 -7.90625,-11.375 -1.929688,-4.59375 -2.890625,-10.078125 -2.890625,-16.453125 0,-5.914062 0.925781,-11.128906 2.78125,-15.640625 1.863281,-4.519531 4.40625,-8.332031 7.625,-11.4375 3.226563,-3.113281 7.003906,-5.46875 11.328125,-7.0625 4.320312,-1.59375 8.945312,-2.390625 13.875,-2.390625 6.988281,0 12.394531,1.140625 16.21875,3.421875 3.832031,2.273437 5.75,5.1875 5.75,8.75 0,1.980469 -0.496094,3.695313 -1.484375,5.140625 -0.980469,1.4375 -2.117187,2.574219 -3.40625,3.40625 -1.96875,-1.289062 -4.074219,-2.390625 -6.3125,-3.296875 -2.242187,-0.914063 -4.839844,-1.375 -7.796875,-1.375 z m 0,0"
           id="path675" />
      </g>
    </g>
  </g>
  <g
     fill="#ffbd59"
     fill-opacity="1"
     id="g689"
     transform="matrix(1.1236936,0,0,1.1236936,-25.120698,-6.2641146e-8)">
    <g
       transform="translate(109.13634,265.46293)"
       id="g687">
      <g
         id="g685">
        <path
           d="M 69.078125,-0.453125 C 68.242188,-0.222656 66.929688,0 65.140625,0.21875 c -1.78125,0.226562 -3.542969,0.34375 -5.28125,0.34375 -1.75,0 -3.292969,-0.136719 -4.625,-0.40625 -1.324219,-0.257812 -2.4375,-0.726562 -3.34375,-1.40625 -0.90625,-0.6875 -1.589844,-1.632812 -2.046875,-2.84375 -0.460938,-1.21875 -0.6875,-2.8125 -0.6875,-4.78125 v -17.75 H 27.3125 V -0.453125 C 26.476562,-0.222656 25.171875,0 23.390625,0.21875 21.609375,0.445312 19.84375,0.5625 18.09375,0.5625 c -1.75,0 -3.289062,-0.136719 -4.609375,-0.40625 C 12.160156,-0.101562 11.039062,-0.570312 10.125,-1.25 9.21875,-1.9375 8.535156,-2.882812 8.078125,-4.09375 7.617188,-5.3125 7.390625,-6.90625 7.390625,-8.875 v -60.09375 c 0.84375,-0.144531 2.171875,-0.347656 3.984375,-0.609375 1.820312,-0.269531 3.566406,-0.40625 5.234375,-0.40625 1.75,0 3.285156,0.136719 4.609375,0.40625 1.332031,0.261719 2.453125,0.734375 3.359375,1.421875 0.914063,0.679688 1.597656,1.625 2.046875,2.84375 0.457031,1.210938 0.6875,2.796875 0.6875,4.765625 v 18.21875 H 49.15625 V -68.96875 c 0.832031,-0.144531 2.160156,-0.347656 3.984375,-0.609375 1.820313,-0.269531 3.566406,-0.40625 5.234375,-0.40625 1.75,0 3.285156,0.136719 4.609375,0.40625 1.332031,0.261719 2.453125,0.734375 3.359375,1.421875 0.90625,0.679688 1.585938,1.625 2.046875,2.84375 0.457031,1.210938 0.6875,2.796875 0.6875,4.765625 z m 0,0"
           id="path683" />
      </g>
    </g>
  </g>
  <g
     fill="#ffbd59"
     fill-opacity="1"
     id="g697"
     transform="matrix(1.1236936,0,0,1.1236936,-25.120698,-6.2641146e-8)">
    <g
       transform="translate(185.59711,265.46293)"
       id="g695">
      <g
         id="g693">
        <path
           d="m 7.390625,-58.375 c 0,-3.257812 0.945313,-5.835938 2.84375,-7.734375 1.90625,-1.90625 4.488281,-2.859375 7.75,-2.859375 H 55.53125 c 0.53125,0.84375 1.003906,1.949219 1.421875,3.3125 0.414063,1.367188 0.625,2.804688 0.625,4.3125 0,2.886719 -0.625,4.9375 -1.875,6.15625 -1.25,1.210938 -2.902344,1.8125 -4.953125,1.8125 h -24 v 10.59375 h 25.59375 c 0.53125,0.835938 1.003906,1.917969 1.421875,3.25 0.414063,1.324219 0.625,2.742188 0.625,4.25 0,2.886719 -0.609375,4.9375 -1.828125,6.15625 -1.210938,1.210938 -2.835938,1.8125 -4.875,1.8125 H 26.75 v 11.953125 h 29.234375 c 0.53125,0.835937 1.003906,1.933594 1.421875,3.296875 0.414062,1.367188 0.625,2.808594 0.625,4.328125 0,2.886719 -0.625,4.953125 -1.875,6.203125 -1.25,1.25 -2.902344,1.875 -4.953125,1.875 h -33.21875 c -3.261719,0 -5.84375,-0.945312 -7.75,-2.84375 -1.898437,-1.894531 -2.84375,-4.472656 -2.84375,-7.734375 z m 0,0"
           id="path691" />
      </g>
    </g>
  </g>
  <g
     fill="#ffbd59"
     fill-opacity="1"
     id="g705"
     transform="matrix(1.1236936,0,0,1.1236936,-25.120698,-6.2641146e-8)">
    <g
       transform="translate(247.94905,265.46293)"
       id="g703">
      <g
         id="g701">
        <path
           d="m 55.875,-68.96875 c 0.53125,0.84375 1.003906,1.96875 1.421875,3.375 0.414063,1.398438 0.625,2.855469 0.625,4.375 0,2.960938 -0.625,5.0625 -1.875,6.3125 -1.25,1.25 -2.9375,1.875 -5.0625,1.875 h -23.90625 v 12.859375 H 52 c 0.613281,0.835937 1.128906,1.933594 1.546875,3.296875 0.414063,1.367188 0.625,2.808594 0.625,4.328125 0,2.886719 -0.632813,4.953125 -1.890625,6.203125 -1.25,1.25 -2.9375,1.875 -5.0625,1.875 H 27.3125 V -0.453125 C 26.476562,-0.222656 25.171875,0 23.390625,0.21875 21.609375,0.445312 19.84375,0.5625 18.09375,0.5625 c -1.75,0 -3.289062,-0.136719 -4.609375,-0.40625 C 12.160156,-0.101562 11.039062,-0.570312 10.125,-1.25 9.21875,-1.9375 8.535156,-2.882812 8.078125,-4.09375 7.617188,-5.3125 7.390625,-6.90625 7.390625,-8.875 v -49.5 c 0,-3.257812 0.945313,-5.835938 2.84375,-7.734375 1.90625,-1.90625 4.488281,-2.859375 7.75,-2.859375 z m 0,0"
           id="path699" />
      </g>
    </g>
  </g>
  <path
     stroke-linecap="butt"
     fill="none"
     stroke-linejoin="miter"
     d="m 51.207059,189.13166 c -2.796064,-0.96129 -5.341932,-1.93135 -7.641991,-2.9102 -2.282502,-0.99201 -4.253354,-2.19033 -5.916946,-3.58616 -1.646035,-1.40023 -2.932137,-3.06821 -3.862696,-5.00833 -0.91739,-1.94013 -1.373891,-4.31042 -1.373891,-7.10209 0,-5.40339 2.080589,-9.73136 6.241764,-12.97515 4.161177,-3.24379 9.999114,-4.86787 17.513812,-4.86787 2.730223,0 5.2717,0.19313 7.615654,0.58379 2.361512,0.3731 4.376258,0.96129 6.057409,1.76894 1.689928,0.79009 3.011146,1.80844 3.959262,3.05065 0.961284,1.22904 1.444122,2.67317 1.444122,4.33237 0,1.64603 -0.381881,3.05942 -1.141251,4.24018 -0.76376,1.18075 -1.68554,2.18155 -2.774117,3.00237 -1.395838,-0.88228 -3.274513,-1.6592 -5.636025,-2.32639 -2.343954,-0.6672 -4.916157,-1.0008 -7.707832,-1.0008 -2.875074,0 -4.97761,0.39505 -6.311994,1.18515 -1.334386,0.79448 -2.005968,1.79527 -2.005968,3.00676 0,0.96128 0.412605,1.74699 1.237817,2.35273 0.838381,0.58817 2.080589,1.14124 3.726624,1.65042 l 5.05223,1.63287 c 5.978398,1.9094 10.574127,4.34553 13.787188,7.31278 3.217449,2.9497 4.823979,6.96163 4.823979,12.0402 0,5.40338 -2.137651,9.78403 -6.408563,13.13755 -4.253354,3.33596 -10.508287,5.00834 -18.769186,5.00834 -2.936526,0 -5.662361,-0.24142 -8.177502,-0.72426 -2.497583,-0.48284 -4.687907,-1.18075 -6.566581,-2.09376 -1.878675,-0.93494 -3.344744,-2.08058 -4.402596,-3.45008 -1.040293,-1.36511 -1.558246,-2.94092 -1.558246,-4.72742 0,-1.83039 0.535511,-3.4018 1.606531,-4.70546 1.084188,-1.30367 2.264944,-2.30445 3.537878,-3.00237 1.786495,1.39583 3.959261,2.60732 6.522687,3.63445 2.576593,1.00517 5.394605,1.50996 8.454035,1.50996 3.120882,0 5.319985,-0.46967 6.592918,-1.41779 1.272934,-0.96567 1.909401,-2.08058 1.909401,-3.35352 0,-1.27293 -0.513563,-2.243 -1.5363,-2.91458 -1.009568,-0.66719 -2.440521,-1.31683 -4.28847,-1.95329 z M 85.743065,152.8706 c 0,-2.40979 0.807655,-4.43332 2.422963,-6.07936 1.628477,-1.66358 3.779297,-2.49319 6.452457,-2.49319 2.668771,0 4.810811,0.82961 6.426125,2.49319 1.61531,1.64604 2.42296,3.66957 2.42296,6.07936 0,2.41857 -0.80765,4.46405 -2.42296,6.12325 -1.615314,1.64604 -3.757354,2.47125 -6.426125,2.47125 -2.67316,0 -4.82398,-0.82521 -6.452457,-2.47125 -1.615308,-1.6592 -2.422963,-3.70468 -2.422963,-6.12325 z m 16.978305,59.1563 c -0.69792,0.1273 -1.72943,0.29409 -3.094554,0.51357 -1.3695,0.23263 -2.756555,0.35115 -4.169951,0.35115 -1.400227,0 -2.655602,-0.10091 -3.774906,-0.30287 -1.101747,-0.18875 -2.032304,-0.57063 -2.796064,-1.14126 -0.759371,-0.57501 -1.347555,-1.35194 -1.768939,-2.33078 -0.416996,-0.99201 -0.627689,-2.28251 -0.627689,-3.86708 v -38.82448 c 0.697919,-0.1273 1.729435,-0.2941 3.098936,-0.51356 1.37828,-0.23264 2.769727,-0.35116 4.165565,-0.35116 1.400228,0 2.651213,0.10091 3.75296,0.30287 1.114918,0.18875 2.054248,0.57062 2.818012,1.14126 0.75937,0.56184 1.35195,1.33877 1.76894,2.33077 0.42139,0.97885 0.62769,2.26495 0.62769,3.86709 z m 32.51687,-47.69989 c 2.60732,0 5.17075,0.36431 7.68589,1.09735 2.51514,0.72864 4.69668,1.82161 6.54463,3.28329 1.9094,-1.27293 4.05144,-2.322 6.43051,-3.14722 2.38785,-0.82082 5.2717,-1.23342 8.63839,-1.23342 2.40979,0 4.76692,0.32042 7.08014,0.95689 2.33079,0.63646 4.4026,1.63726 6.21983,3.00236 1.81721,1.36951 3.26134,3.18234 4.33235,5.45167 1.08858,2.25178 1.62848,4.99956 1.62848,8.24335 v 30.04562 c -0.63646,0.18875 -1.63725,0.3731 -3.00236,0.56185 -1.36511,0.20191 -2.77851,0.30287 -4.24019,0.30287 -1.39583,0 -2.65561,-0.10091 -3.77052,-0.30287 -1.1193,-0.18875 -2.05864,-0.57063 -2.81801,-1.14126 -0.76375,-0.57501 -1.35194,-1.35194 -1.77333,-2.33078 -0.40383,-0.99201 -0.60573,-2.28251 -0.60573,-3.86708 v -22.80307 c 0,-1.90941 -0.53991,-3.29208 -1.62848,-4.14362 -1.07103,-0.85594 -2.53271,-1.28171 -4.38066,-1.28171 -0.88226,0 -1.83917,0.21069 -2.8619,0.62768 -1.02712,0.40383 -1.78649,0.834 -2.2825,1.28171 0.0615,0.2502 0.0921,0.49162 0.0921,0.72426 0,0.21508 0,0.417 0,0.60574 v 31.76628 c -0.69791,0.18875 -1.73382,0.3731 -3.09893,0.56185 -1.36511,0.20191 -2.75656,0.30287 -4.16996,0.30287 -1.39583,0 -2.6556,-0.10091 -3.77051,-0.30287 -1.10175,-0.18875 -2.03669,-0.57063 -2.79606,-1.14126 -0.75937,-0.57501 -1.35195,-1.35194 -1.76894,-2.33078 -0.42139,-0.99201 -0.6277,-2.28251 -0.6277,-3.86708 v -22.80307 c 0,-1.90941 -0.59257,-3.29208 -1.77332,-4.14362 -1.16321,-0.85594 -2.5766,-1.28171 -4.2358,-1.28171 -1.13686,0 -2.12009,0.17996 -2.95847,0.53551 -0.82522,0.34237 -1.52313,0.66719 -2.09815,0.97884 v 33.49132 c -0.63646,0.18875 -1.63726,0.3731 -3.00236,0.56185 -1.36951,0.20191 -2.7829,0.30287 -4.24019,0.30287 -1.40023,0 -2.65561,-0.10091 -3.77491,-0.30287 -1.10175,-0.18875 -2.04109,-0.57063 -2.81801,-1.14126 -0.75937,-0.57501 -1.35195,-1.35194 -1.76894,-2.33078 -0.40383,-0.99201 -0.60574,-2.28251 -0.60574,-3.86708 v -28.8122 c 0,-1.70749 0.36433,-3.0726 1.09296,-4.09533 0.73305,-1.02713 1.73383,-1.98403 3.00676,-2.86629 2.15961,-1.52314 4.84593,-2.75657 8.059,-3.70469 3.21305,-0.96128 6.56657,-1.44411 10.06056,-1.44411 z m 79.75588,0 c 3.8188,0 7.36545,0.496 10.63997,1.4924 3.27889,0.97884 6.08813,2.48442 8.43209,4.51672 2.3615,2.03669 4.20945,4.59573 5.54384,7.68588 1.33438,3.07699 2.00158,6.74655 2.00158,11.01746 0,4.06901 -0.57062,7.63322 -1.72066,10.69264 -1.13247,3.04187 -2.75655,5.59652 -4.86787,7.65956 -2.09815,2.06741 -4.62646,3.61249 -7.59371,4.63523 -2.9497,1.00956 -6.23298,1.51435 -9.84987,1.51435 -2.73461,0 -5.28048,-0.41261 -7.64199,-1.23342 v 15.83704 c -0.63648,0.18875 -1.65481,0.38627 -3.05065,0.60574 -1.39584,0.23264 -2.8268,0.35115 -4.28408,0.35115 -1.40023,0 -2.65561,-0.0965 -3.77491,-0.28092 -1.11931,-0.18875 -2.05864,-0.56623 -2.81802,-1.14124 -0.75937,-0.57502 -1.33437,-1.36073 -1.72504,-2.35274 -0.3731,-0.97884 -0.55745,-2.26494 -0.55745,-3.86709 v -45.79049 c 0,-1.70749 0.36431,-3.10333 1.09296,-4.19191 0.73304,-1.08418 1.73383,-2.07179 3.00676,-2.95847 1.97086,-1.27293 4.41577,-2.28688 7.33473,-3.05065 2.93652,-0.75937 6.21103,-1.14124 9.83232,-1.14124 z m 0.2063,36.44979 c 6.54024,0 9.80598,-3.91098 9.80598,-11.73733 0,-4.069 -0.80766,-7.08892 -2.42297,-9.05977 -1.61531,-1.97086 -3.95048,-2.95847 -7.00991,-2.95847 -1.21148,0 -2.29567,0.14924 -3.26135,0.44333 -0.94372,0.28092 -1.76894,0.60574 -2.46685,0.97884 v 20.98584 c 0.75937,0.38627 1.58459,0.7111 2.46685,0.97446 0.89984,0.2502 1.86552,0.3731 2.88825,0.3731 z m 50.84711,11.2501 c -0.69792,0.1273 -1.73821,0.29409 -3.12088,0.51357 -1.36511,0.23263 -2.74778,0.35115 -4.14362,0.35115 -1.39583,0 -2.6556,-0.10091 -3.7749,-0.30287 -1.10175,-0.18875 -2.0323,-0.57063 -2.79167,-1.14126 -0.76377,-0.57501 -1.35195,-1.35194 -1.77334,-2.33078 -0.41699,-0.99201 -0.62768,-2.28251 -0.62768,-3.86708 v -55.3375 c 0.69791,-0.1273 1.73382,-0.29848 3.09893,-0.51356 1.36511,-0.21948 2.75656,-0.32483 4.16995,-0.32483 1.39584,0 2.64683,0.0922 3.74857,0.27655 1.1193,0.18873 2.05864,0.56622 2.81801,1.14124 0.75937,0.57502 1.35195,1.36073 1.76895,2.35273 0.42138,0.97884 0.62768,2.26056 0.62768,3.84514 z m 34.72475,1.63287 c -3.75734,0 -7.24255,-0.53113 -10.45561,-1.58458 -3.21306,-1.05786 -6.01791,-2.63366 -8.41014,-4.72741 -2.37468,-2.09815 -4.24457,-4.7362 -5.60969,-7.91854 -1.3695,-3.18671 -2.04985,-6.90456 -2.04985,-11.15792 0,-4.1919 0.68035,-7.79562 2.04985,-10.80676 1.36512,-3.0287 3.15601,-5.51312 5.37705,-7.45325 2.2386,-1.94012 4.78448,-3.37108 7.642,-4.28408 2.8575,-0.93494 5.78087,-1.40022 8.77884,-1.40022 3.37108,0 6.4349,0.51356 9.20024,1.53629 2.76535,1.00957 5.1488,2.40979 7.15038,4.1963 2.00158,1.76893 3.56421,3.89342 4.68352,6.37783 1.11491,2.48441 1.67675,5.1883 1.67675,8.10728 0,2.17276 -0.60573,3.83635 -1.81722,4.98199 -1.21148,1.13687 -2.89702,1.85673 -5.05661,2.16837 l -23.57123,3.53788 c 0.70231,2.09815 2.12887,3.67395 4.28848,4.73181 2.17276,1.04029 4.65718,1.55824 7.45324,1.55824 2.60732,0 5.06978,-0.33359 7.38302,-1.00079 2.32639,-0.66719 4.22263,-1.44412 5.6843,-2.33078 1.02274,0.63647 1.88307,1.5319 2.58538,2.68194 0.69791,1.13247 1.04468,2.33517 1.04468,3.60811 0,2.87068 -1.33438,5.00834 -4.00316,6.40417 -2.03669,1.07102 -4.32797,1.80405 -6.87384,2.19032 -2.54587,0.38627 -4.92932,0.5838 -7.15038,0.5838 z m -2.67755,-37.49887 c -1.52313,0 -2.83995,0.25458 -3.95925,0.76814 -1.11932,0.49601 -2.02792,1.15003 -2.72584,1.95769 -0.69792,0.7901 -1.22466,1.68115 -1.58459,2.67755 -0.33798,0.97885 -0.5399,1.97086 -0.60573,2.98043 l 16.30671,-2.65561 c -0.18875,-1.27294 -0.88666,-2.54587 -2.09815,-3.8188 -1.19391,-1.27293 -2.97163,-1.9094 -5.33315,-1.9094 z m 0,0"
     stroke="#000000"
     stroke-width="2.38514"
     stroke-opacity="1"
     stroke-miterlimit="4"
     id="path707" />
  <g
     fill="#ff5757"
     fill-opacity="1"
     id="g715"
     transform="matrix(1.1236936,0,0,1.1236936,-25.120698,-6.2641146e-8)">
    <g
       transform="translate(47.798124,188.7712)"
       id="g713">
      <g
         id="g711">
        <path
           d="m 20.125,-20.46875 c -2.492188,-0.84375 -4.757812,-1.703125 -6.796875,-2.578125 -2.03125,-0.882813 -3.789063,-1.945313 -5.265625,-3.1875 -1.46875,-1.25 -2.617188,-2.734375 -3.4375,-4.453125 -0.824219,-1.726562 -1.234375,-3.835938 -1.234375,-6.328125 0,-4.8125 1.851563,-8.660156 5.5625,-11.546875 3.707031,-2.882812 8.898437,-4.328125 15.578125,-4.328125 2.4375,0 4.703125,0.171875 6.796875,0.515625 2.09375,0.335938 3.890625,0.855469 5.390625,1.5625 1.5,0.710938 2.671875,1.617188 3.515625,2.71875 0.851563,1.105469 1.28125,2.390625 1.28125,3.859375 0,1.46875 -0.339844,2.730469 -1.015625,3.78125 -0.679688,1.042969 -1.5,1.933594 -2.46875,2.671875 -1.242188,-0.789062 -2.90625,-1.484375 -5,-2.078125 -2.09375,-0.59375 -4.386719,-0.890625 -6.875,-0.890625 -2.554688,0 -4.421875,0.355469 -5.609375,1.0625 -1.1875,0.710938 -1.78125,1.601562 -1.78125,2.671875 0,0.84375 0.363281,1.539063 1.09375,2.078125 0.738281,0.542969 1.84375,1.039062 3.3125,1.484375 l 4.5,1.4375 c 5.320313,1.699219 9.410156,3.867187 12.265625,6.5 2.863281,2.636719 4.296875,6.214844 4.296875,10.734375 0,4.8125 -1.898437,8.710938 -5.6875,11.6875 -3.792969,2.96875 -9.367187,4.453125 -16.71875,4.453125 -2.605469,0 -5.027344,-0.214844 -7.265625,-0.640625 -2.242188,-0.429688 -4.195312,-1.046875 -5.859375,-1.859375 -1.667969,-0.820313 -2.96875,-1.84375 -3.90625,-3.0625 -0.9375,-1.21875 -1.40625,-2.617187 -1.40625,-4.203125 0,-1.644531 0.476563,-3.046875 1.4375,-4.203125 0.96875,-1.15625 2.019531,-2.046875 3.15625,-2.671875 1.582031,1.242188 3.519531,2.3125 5.8125,3.21875 2.289063,0.90625 4.796875,1.359375 7.515625,1.359375 2.769531,0 4.722656,-0.421875 5.859375,-1.265625 1.132813,-0.851562 1.703125,-1.84375 1.703125,-2.96875 0,-1.132812 -0.453125,-2 -1.359375,-2.59375 -0.90625,-0.59375 -2.183594,-1.175781 -3.828125,-1.75 z m 0,0"
           id="path709" />
      </g>
    </g>
  </g>
  <g
     fill="#ff5757"
     fill-opacity="1"
     id="g723"
     transform="matrix(1.1236936,0,0,1.1236936,-25.120698,-6.2641146e-8)">
    <g
       transform="translate(94.577269,188.7712)"
       id="g721">
      <g
         id="g719">
        <path
           d="m 4.078125,-52.734375 c 0,-2.144531 0.71875,-3.953125 2.15625,-5.421875 1.445313,-1.476562 3.359375,-2.21875 5.734375,-2.21875 2.375,0 4.285156,0.742188 5.734375,2.21875 1.445313,1.46875 2.171875,3.277344 2.171875,5.421875 0,2.15625 -0.726562,3.976563 -2.171875,5.453125 -1.449219,1.46875 -3.359375,2.203125 -5.734375,2.203125 -2.375,0 -4.289062,-0.734375 -5.734375,-2.203125 -1.4375,-1.476562 -2.15625,-3.296875 -2.15625,-5.453125 z M 19.1875,-0.078125 c -0.625,0.1015625 -1.546875,0.253906 -2.765625,0.453125 -1.210937,0.195312 -2.4375,0.296875 -3.6875,0.296875 -1.242187,0 -2.359375,-0.085937 -3.359375,-0.25 C 8.382812,0.253906 7.550781,-0.0820312 6.875,-0.59375 6.195312,-1.101562 5.671875,-1.796875 5.296875,-2.671875 4.929688,-3.546875 4.75,-4.691406 4.75,-6.109375 v -34.5625 c 0.625,-0.113281 1.546875,-0.269531 2.765625,-0.46875 1.21875,-0.195313 2.445313,-0.296875 3.6875,-0.296875 1.25,0 2.367187,0.08984 3.359375,0.265625 0.988281,0.167969 1.820312,0.507813 2.5,1.015625 0.675781,0.511719 1.195312,1.203125 1.5625,2.078125 0.375,0.875 0.5625,2.023437 0.5625,3.4375 z m 0,0"
           id="path717" />
      </g>
    </g>
  </g>
  <g
     fill="#ff5757"
     fill-opacity="1"
     id="g731"
     transform="matrix(1.1236936,0,0,1.1236936,-25.120698,-6.2641146e-8)">
    <g
       transform="translate(118.51867,188.7712)"
       id="g729">
      <g
         id="g727">
        <path
           d="m 24.203125,-42.53125 c 2.3125,0 4.585937,0.328125 6.828125,0.984375 2.238281,0.648437 4.175781,1.621094 5.8125,2.921875 1.695312,-1.132812 3.609375,-2.066406 5.734375,-2.796875 2.125,-0.738281 4.6875,-1.109375 7.6875,-1.109375 2.144531,0 4.25,0.28125 6.3125,0.84375 2.070313,0.5625 3.914063,1.453125 5.53125,2.671875 1.613281,1.21875 2.898437,2.835937 3.859375,4.84375 0.96875,2.011719 1.453125,4.460937 1.453125,7.34375 v 26.75 c -0.574219,0.1640625 -1.46875,0.332031 -2.6875,0.5 -1.210937,0.164063 -2.464844,0.25 -3.765625,0.25 -1.25,0 -2.371094,-0.085937 -3.359375,-0.25 -0.992187,-0.167969 -1.828125,-0.5039062 -2.515625,-1.015625 -0.679688,-0.507812 -1.199219,-1.203125 -1.5625,-2.078125 -0.367188,-0.875 -0.546875,-2.019531 -0.546875,-3.4375 V -26.40625 c 0,-1.695312 -0.484375,-2.925781 -1.453125,-3.6875 C 50.570312,-30.863281 49.269531,-31.25 47.625,-31.25 c -0.792969,0 -1.640625,0.1875 -2.546875,0.5625 -0.898437,0.367188 -1.574219,0.746094 -2.03125,1.140625 0.05078,0.230469 0.07813,0.445313 0.07813,0.640625 0,0.199219 0,0.382812 0,0.546875 v 28.28125 c -0.617188,0.1640625 -1.53125,0.332031 -2.75,0.5 -1.21875,0.164063 -2.453125,0.25 -3.703125,0.25 -1.242187,0 -2.355469,-0.085937 -3.34375,-0.25 C 32.335938,0.253906 31.5,-0.0820312 30.8125,-0.59375 30.132812,-1.101562 29.613281,-1.796875 29.25,-2.671875 c -0.367188,-0.875 -0.546875,-2.019531 -0.546875,-3.4375 V -26.40625 c 0,-1.695312 -0.527344,-2.925781 -1.578125,-3.6875 -1.042969,-0.769531 -2.304688,-1.15625 -3.78125,-1.15625 -1.011719,0 -1.886719,0.15625 -2.625,0.46875 -0.742188,0.3125 -1.367188,0.609375 -1.875,0.890625 v 29.8125 c -0.5625,0.1640625 -1.453125,0.332031 -2.671875,0.5 -1.21875,0.164063 -2.480469,0.25 -3.78125,0.25 -1.242187,0 -2.355469,-0.085937 -3.34375,-0.25 C 8.054688,0.253906 7.21875,-0.0820312 6.53125,-0.59375 5.851562,-1.101562 5.332031,-1.796875 4.96875,-2.671875 4.601562,-3.546875 4.421875,-4.691406 4.421875,-6.109375 V -31.75 c 0,-1.53125 0.320313,-2.75 0.96875,-3.65625 0.65625,-0.90625 1.546875,-1.753906 2.671875,-2.546875 1.925781,-1.351563 4.316406,-2.453125 7.171875,-3.296875 2.863281,-0.851562 5.851563,-1.28125 8.96875,-1.28125 z m 0,0"
           id="path725" />
      </g>
    </g>
  </g>
  <g
     fill="#ff5757"
     fill-opacity="1"
     id="g739"
     transform="matrix(1.1236936,0,0,1.1236936,-25.120698,-6.2641146e-8)">
    <g
       transform="translate(190.3429,188.7712)"
       id="g737">
      <g
         id="g735">
        <path
           d="m 23.34375,-42.53125 c 3.394531,0 6.550781,0.4375 9.46875,1.3125 2.914062,0.875 5.421875,2.21875 7.515625,4.03125 2.09375,1.8125 3.734375,4.09375 4.921875,6.84375 1.1875,2.742188 1.78125,6.007812 1.78125,9.796875 0,3.625 -0.511719,6.796875 -1.53125,9.515625 -1.011719,2.710938 -2.453125,4.984375 -4.328125,6.828125 -1.867187,1.84375 -4.117187,3.21875 -6.75,4.125 -2.625,0.90625 -5.554687,1.359375 -8.78125,1.359375 -2.4375,0 -4.703125,-0.371094 -6.796875,-1.109375 v 14.09375 c -0.5625,0.164063 -1.46875,0.347656 -2.71875,0.546875 -1.242188,0.195312 -2.511719,0.296875 -3.8125,0.296875 -1.25,0 -2.371094,-0.08594 -3.359375,-0.25 -0.992187,-0.167969 -1.824219,-0.507813 -2.5,-1.015625 -0.679687,-0.511719 -1.1875,-1.210938 -1.53125,-2.09375 -0.335937,-0.875 -0.5,-2.015625 -0.5,-3.421875 V -32.4375 c 0,-1.53125 0.320313,-2.773438 0.96875,-3.734375 0.65625,-0.957031 1.546875,-1.832031 2.671875,-2.625 1.757812,-1.132813 3.941406,-2.039063 6.546875,-2.71875 2.601563,-0.675781 5.515625,-1.015625 8.734375,-1.015625 z m 0.171875,32.421875 c 5.832031,0 8.75,-3.476563 8.75,-10.4375 0,-3.625 -0.726563,-6.3125 -2.171875,-8.0625 -1.4375,-1.757813 -3.515625,-2.640625 -6.234375,-2.640625 -1.074219,0 -2.039063,0.132812 -2.890625,0.390625 -0.84375,0.25 -1.578125,0.546875 -2.203125,0.890625 v 18.671875 c 0.675781,0.34375 1.410156,0.632813 2.203125,0.859375 0.789062,0.21875 1.640625,0.328125 2.546875,0.328125 z m 0,0"
           id="path733" />
      </g>
    </g>
  </g>
  <g
     fill="#ff5757"
     fill-opacity="1"
     id="g747"
     transform="matrix(1.1236936,0,0,1.1236936,-25.120698,-6.2641146e-8)">
    <g
       transform="translate(240.0086,188.7712)"
       id="g745">
      <g
         id="g743">
        <path
           d="M 19.109375,-0.078125 C 18.484375,0.0234375 17.5625,0.175781 16.34375,0.375 15.125,0.570312 13.894531,0.671875 12.65625,0.671875 c -1.25,0 -2.371094,-0.085937 -3.359375,-0.25 C 8.304688,0.253906 7.472656,-0.0820312 6.796875,-0.59375 6.117188,-1.101562 5.59375,-1.796875 5.21875,-2.671875 c -0.367188,-0.875 -0.546875,-2.019531 -0.546875,-3.4375 v -49.25 c 0.625,-0.113281 1.539063,-0.269531 2.75,-0.46875 C 8.640625,-56.023438 9.875,-56.125 11.125,-56.125 c 1.238281,0 2.351562,0.08984 3.34375,0.265625 1,0.167969 1.835938,0.507813 2.515625,1.015625 0.675781,0.511719 1.195313,1.203125 1.5625,2.078125 0.375,0.875 0.5625,2.023437 0.5625,3.4375 z m 0,0"
           id="path741" />
      </g>
    </g>
  </g>
  <g
     fill="#ff5757"
     fill-opacity="1"
     id="g755"
     transform="matrix(1.1236936,0,0,1.1236936,-25.120698,-6.2641146e-8)">
    <g
       transform="translate(263.78021,188.7712)"
       id="g753">
      <g
         id="g751">
        <path
           d="m 26.234375,1.359375 c -3.335937,0 -6.433594,-0.464844 -9.296875,-1.390625 -2.855469,-0.9375 -5.34375,-2.335938 -7.46875,-4.203125 -2.125,-1.875 -3.796875,-4.222656 -5.015625,-7.046875 C 3.234375,-14.113281 2.625,-17.429688 2.625,-21.234375 c 0,-3.726563 0.609375,-6.9375 1.828125,-9.625 1.21875,-2.6875 2.816406,-4.894531 4.796875,-6.625 1.976562,-1.726563 4.242188,-3 6.796875,-3.8125 2.550781,-0.820313 5.15625,-1.234375 7.8125,-1.234375 3,0 5.726563,0.453125 8.1875,1.359375 2.46875,0.898437 4.59375,2.140625 6.375,3.734375 1.78125,1.585938 3.164063,3.480469 4.15625,5.6875 0.988281,2.210938 1.484375,4.617188 1.484375,7.21875 0,1.917969 -0.539062,3.386719 -1.609375,4.40625 -1.074219,1.023438 -2.574219,1.671875 -4.5,1.953125 l -20.96875,3.140625 c 0.625,1.875 1.894531,3.28125 3.8125,4.21875 1.925781,0.929688 4.132813,1.390625 6.625,1.390625 2.320313,0 4.515625,-0.296875 6.578125,-0.890625 2.070312,-0.59375 3.757812,-1.285156 5.0625,-2.078125 0.90625,0.5625 1.664062,1.355469 2.28125,2.375 0.625,1.023437 0.9375,2.09375 0.9375,3.21875 0,2.554687 -1.1875,4.449219 -3.5625,5.6875 -1.8125,0.96875 -3.855469,1.617187 -6.125,1.953125 -2.261719,0.34375 -4.382812,0.515625 -6.359375,0.515625 z m -2.375,-33.375 c -1.355469,0 -2.53125,0.230469 -3.53125,0.6875 -0.992187,0.449219 -1.796875,1.027344 -2.421875,1.734375 -0.617188,0.710938 -1.078125,1.507812 -1.390625,2.390625 -0.3125,0.875 -0.496094,1.765625 -0.546875,2.671875 l 14.515625,-2.390625 c -0.167969,-1.125 -0.792969,-2.253906 -1.875,-3.390625 -1.074219,-1.132812 -2.65625,-1.703125 -4.75,-1.703125 z m 0,0"
           id="path749" />
      </g>
    </g>
  </g>
</svg>
